PaperOn.ufo
<glyph name="uni0915" format="2">
  <advance width="400"/>
  <unicode hex="0915"/>
  <outline>
    <contour>
      <point x="199.996" y="582.052" type="curve" smooth="yes"/>
      <point x="194.676" y="582.052"/>
      <point x="190.229" y="577.604"/>
      <point x="190.229" y="572.283" type="curve" smooth="yes"/>
      <point x="190.229" y="205.982" type="line" smooth="yes"/>
      <point x="190.229" y="200.662"/>
      <point x="194.676" y="196.215"/>
      <point x="199.996" y="196.215" type="curve" smooth="yes"/>
      <point x="205.316" y="196.215"/>
      <point x="209.764" y="200.662"/>
      <point x="209.764" y="205.982" type="curve" smooth="yes"/>
      <point x="209.764" y="572.283" type="line" smooth="yes"/>
      <point x="209.764" y="577.604"/>
      <point x="205.316" y="582.052"/>
    </contour>
    <contour>
      <point x="-38.71" y="572.283" type="curve" smooth="yes"/>
      <point x="-38.71" y="566.963"/>
      <point x="-34.2627" y="562.516"/>
      <point x="-28.9414" y="562.516" type="curve" smooth="yes"/>
      <point x="428.934" y="562.516" type="line" smooth="yes"/>
      <point x="434.255" y="562.516"/>
      <point x="438.702" y="566.963"/>
      <point x="438.702" y="572.283" type="curve" smooth="yes"/>
      <point x="438.702" y="577.604"/>
      <point x="434.255" y="582.052"/>
      <point x="428.934" y="582.052" type="curve" smooth="yes"/>
      <point x="-28.9414" y="582.052" type="line" smooth="yes"/>
      <point x="-34.2627" y="582.052"/>
      <point x="-38.71" y="577.604"/>
    </contour>
    <contour>
      <point x="16.8457" y="379.365" type="curve" smooth="yes"/>
      <point x="22.167" y="379.365"/>
      <point x="26.6143" y="383.812"/>
      <point x="26.6143" y="389.133" type="curve" smooth="yes"/>
      <point x="26.6143" y="434.315"/>
      <point x="63.2393" y="470.94"/>
      <point x="108.421" y="470.94" type="curve" smooth="yes"/>
      <point x="153.603" y="470.94"/>
      <point x="190.229" y="434.315"/>
      <point x="190.229" y="389.133" type="curve" smooth="yes"/>
      <point x="190.229" y="383.812"/>
      <point x="194.676" y="379.365"/>
      <point x="199.996" y="379.365" type="curve" smooth="yes"/>
      <point x="205.316" y="379.365"/>
      <point x="209.764" y="383.812"/>
      <point x="209.764" y="389.133" type="curve" smooth="yes"/>
      <point x="209.764" y="445.103"/>
      <point x="164.39" y="490.477"/>
      <point x="108.421" y="490.477" type="curve" smooth="yes"/>
      <point x="52.4531" y="490.477"/>
      <point x="7.07812" y="445.103"/>
      <point x="7.07812" y="389.133" type="curve" smooth="yes"/>
      <point x="7.07812" y="383.812"/>
      <point x="11.5254" y="379.365"/>
    </contour>
    <contour>
      <point x="16.8457" y="398.901" type="curve" smooth="yes"/>
      <point x="11.5254" y="398.901"/>
      <point x="7.07812" y="394.454"/>
      <point x="7.07812" y="389.133" type="curve" smooth="yes"/>
      <point x="7.07812" y="333.165"/>
      <point x="52.4531" y="287.79"/>
      <point x="108.421" y="287.79" type="curve" smooth="yes"/>
      <point x="164.39" y="287.79"/>
      <point x="209.764" y="333.165"/>
      <point x="209.764" y="389.133" type="curve" smooth="yes"/>
      <point x="209.764" y="394.454"/>
      <point x="205.316" y="398.901"/>
      <point x="199.996" y="398.901" type="curve" smooth="yes"/>
      <point x="194.676" y="398.901"/>
      <point x="190.229" y="394.454"/>
      <point x="190.229" y="389.133" type="curve" smooth="yes"/>
      <point x="190.229" y="343.951"/>
      <point x="153.603" y="307.326"/>
      <point x="108.421" y="307.326" type="curve" smooth="yes"/>
      <point x="63.2393" y="307.326"/>
      <point x="26.6143" y="343.951"/>
      <point x="26.6143" y="389.133" type="curve" smooth="yes"/>
      <point x="26.6143" y="394.454"/>
      <point x="22.167" y="398.901"/>
    </contour>
    <contour>
      <point x="199.996" y="379.365" type="curve" smooth="yes"/>
      <point x="205.316" y="379.365"/>
      <point x="209.764" y="383.812"/>
      <point x="209.764" y="389.133" type="curve" smooth="yes"/>
      <point x="209.764" y="434.315"/>
      <point x="246.39" y="470.94"/>
      <point x="291.571" y="470.94" type="curve" smooth="yes"/>
      <point x="336.753" y="470.94"/>
      <point x="373.378" y="434.315"/>
      <point x="373.378" y="389.133" type="curve" smooth="yes"/>
      <point x="373.378" y="383.812"/>
      <point x="377.825" y="379.365"/>
      <point x="383.146" y="379.365" type="curve" smooth="yes"/>
      <point x="388.467" y="379.365"/>
      <point x="392.914" y="383.812"/>
      <point x="392.914" y="389.133" type="curve" smooth="yes"/>
      <point x="392.914" y="445.103"/>
      <point x="347.539" y="490.477"/>
      <point x="291.571" y="490.477" type="curve" smooth="yes"/>
      <point x="235.603" y="490.477"/>
      <point x="190.229" y="445.103"/>
      <point x="190.229" y="389.133" type="curve" smooth="yes"/>
      <point x="190.229" y="383.812"/>
      <point x="194.676" y="379.365"/>
    </contour>
    <contour>
      <point x="244.017" y="310.265" type="curve" smooth="yes"/>
      <point x="241.769" y="305.442"/>
      <point x="243.92" y="299.532"/>
      <point x="248.742" y="297.284" type="curve" smooth="yes"/>
      <point x="280.129" y="282.65"/>
      <point x="316.814" y="285.055"/>
      <point x="346.023" y="303.661" type="curve" smooth="yes"/>
      <point x="375.231" y="322.268"/>
      <point x="392.914" y="354.502"/>
      <point x="392.914" y="389.133" type="curve" smooth="yes"/>
      <point x="392.914" y="394.454"/>
      <point x="388.467" y="398.901"/>
      <point x="383.146" y="398.901" type="curve" smooth="yes"/>
      <point x="377.825" y="398.901"/>
      <point x="373.378" y="394.454"/>
      <point x="373.378" y="389.133" type="curve" smooth="yes"/>
      <point x="373.378" y="361.179"/>
      <point x="359.104" y="335.157"/>
      <point x="335.526" y="320.139" type="curve" smooth="yes"/>
      <point x="311.949" y="305.118"/>
      <point x="282.335" y="303.177"/>
      <point x="256.998" y="314.99" type="curve" smooth="yes"/>
      <point x="252.175" y="317.238"/>
      <point x="246.266" y="315.087"/>
    </contour>
  </outline>
</glyph>
<glyph name="uni0916" format="2">
  <advance width="1000"/>
  <unicode hex="0916"/>
  <outline>
    <contour>
      <point x="353.052" y="574.164" type="curve" smooth="yes"/>
      <point x="352.027" y="568.942"/>
      <point x="355.535" y="563.723"/>
      <point x="360.757" y="562.698" type="curve" smooth="yes"/>
      <point x="391.485" y="556.669"/>
      <point x="416.386" y="534.186"/>
      <point x="425.512" y="504.23" type="curve" smooth="yes"/>
      <point x="434.637" y="474.275"/>
      <point x="426.5" y="441.729"/>
      <point x="404.352" y="419.592" type="curve" smooth="yes"/>
      <point x="382.201" y="397.454"/>
      <point x="349.652" y="389.334"/>
      <point x="319.701" y="398.476" type="curve" smooth="yes"/>
      <point x="314.612" y="400.029"/>
      <point x="309.061" y="397.073"/>
      <point x="307.507" y="391.984" type="curve" smooth="yes"/>
      <point x="305.954" y="386.896"/>
      <point x="308.909" y="381.344"/>
      <point x="313.998" y="379.79" type="curve" smooth="yes"/>
      <point x="350.854" y="368.542"/>
      <point x="390.907" y="378.534"/>
      <point x="418.162" y="405.773" type="curve" smooth="yes"/>
      <point x="445.416" y="433.014"/>
      <point x="455.428" y="473.063"/>
      <point x="444.199" y="509.923" type="curve" smooth="yes"/>
      <point x="432.971" y="546.783"/>
      <point x="402.33" y="574.45"/>
      <point x="364.518" y="581.868" type="curve" smooth="yes"/>
      <point x="359.297" y="582.893"/>
      <point x="354.076" y="579.385"/>
    </contour>
    <contour>
      <point x="310.989" y="396.947" type="curve" smooth="yes"/>
      <point x="306.732" y="393.755"/>
      <point x="305.843" y="387.529"/>
      <point x="309.035" y="383.272" type="curve" smooth="yes"/>
      <point x="377.717" y="291.697" type="line"/>
      <point x="446.398" y="200.122" type="line" smooth="yes"/>
      <point x="449.591" y="195.865"/>
      <point x="455.816" y="194.976"/>
      <point x="460.073" y="198.169" type="curve" smooth="yes"/>
      <point x="464.33" y="201.361"/>
      <point x="465.22" y="207.587"/>
      <point x="462.027" y="211.844" type="curve" smooth="yes"/>
      <point x="393.346" y="303.419" type="line"/>
      <point x="324.664" y="394.994" type="line" smooth="yes"/>
      <point x="321.472" y="399.251"/>
      <point x="315.246" y="400.14"/>
    </contour>
    <contour>
      <point x="637.362" y="582.052" type="curve" smooth="yes"/>
      <point x="632.042" y="582.052"/>
      <point x="627.595" y="577.604"/>
      <point x="627.595" y="572.283" type="curve" smooth="yes"/>
      <point x="627.595" y="205.982" type="line" smooth="yes"/>
      <point x="627.595" y="200.662"/>
      <point x="632.042" y="196.215"/>
      <point x="637.362" y="196.215" type="curve" smooth="yes"/>
      <point x="642.684" y="196.215"/>
      <point x="647.131" y="200.662"/>
      <point x="647.131" y="205.982" type="curve" smooth="yes"/>
      <point x="647.131" y="572.283" type="line" smooth="yes"/>
      <point x="647.131" y="577.604"/>
      <point x="642.684" y="582.052"/>
    </contour>
    <contour>
      <point x="640.229" y="402.688" type="curve" smooth="yes"/>
      <point x="645.315" y="404.25"/>
      <point x="648.262" y="409.807"/>
      <point x="646.701" y="414.893" type="curve" smooth="yes"/>
      <point x="633.95" y="456.438"/>
      <point x="592.722" y="482.406"/>
      <point x="549.744" y="475.959" type="curve" smooth="yes"/>
      <point x="506.765" y="469.513"/>
      <point x="474.97" y="432.592"/>
      <point x="474.97" y="389.133" type="curve" smooth="yes"/>
      <point x="474.97" y="345.674"/>
      <point x="506.765" y="308.753"/>
      <point x="549.744" y="302.307" type="curve" smooth="yes"/>
      <point x="592.722" y="295.86"/>
      <point x="633.95" y="321.827"/>
      <point x="646.701" y="363.373" type="curve" smooth="yes"/>
      <point x="648.262" y="368.46"/>
      <point x="645.315" y="374.017"/>
      <point x="640.229" y="375.577" type="curve" smooth="yes"/>
      <point x="635.142" y="377.139"/>
      <point x="629.586" y="374.191"/>
      <point x="628.024" y="369.105" type="curve" smooth="yes"/>
      <point x="618.11" y="336.802"/>
      <point x="586.058" y="316.614"/>
      <point x="552.642" y="321.627" type="curve" smooth="yes"/>
      <point x="519.225" y="326.639"/>
      <point x="494.506" y="355.343"/>
      <point x="494.506" y="389.133" type="curve" smooth="yes"/>
      <point x="494.506" y="422.924"/>
      <point x="519.225" y="451.627"/>
      <point x="552.642" y="456.64" type="curve" smooth="yes"/>
      <point x="586.058" y="461.651"/>
      <point x="618.11" y="441.464"/>
      <point x="628.024" y="409.161" type="curve" smooth="yes"/>
      <point x="629.586" y="404.074"/>
      <point x="635.142" y="401.128"/>
    </contour>
    <contour>
      <point x="284.188" y="572.283" type="curve" smooth="yes"/>
      <point x="284.188" y="566.963"/>
      <point x="288.636" y="562.516"/>
      <point x="293.956" y="562.516" type="curve" smooth="yes"/>
      <point x="706.044" y="562.516" type="line" smooth="yes"/>
      <point x="711.364" y="562.516"/>
      <point x="715.812" y="566.963"/>
      <point x="715.812" y="572.283" type="curve" smooth="yes"/>
      <point x="715.812" y="577.604"/>
      <point x="711.364" y="582.052"/>
      <point x="706.044" y="582.052" type="curve" smooth="yes"/>
      <point x="293.956" y="582.052" type="line" smooth="yes"/>
      <point x="288.636" y="582.052"/>
      <point x="284.188" y="577.604"/>
    </contour>
  </outline>
</glyph>
<glyph name="uni0917" format="2">
  <advance width="379"/>
  <unicode hex="0917"/>
  <outline>
    <contour>
      <point x="128.955" y="627.839" type="curve" smooth="yes"/>
      <point x="123.634" y="627.839"/>
      <point x="119.187" y="623.392"/>
      <point x="119.187" y="618.071" type="curve" smooth="yes"/>
      <point x="119.187" y="389.133" type="line" smooth="yes"/>
      <point x="119.187" y="383.812"/>
      <point x="123.634" y="379.365"/>
      <point x="128.955" y="379.365" type="curve" smooth="yes"/>
      <point x="134.275" y="379.365"/>
      <point x="138.723" y="383.812"/>
      <point x="138.723" y="389.133" type="curve" smooth="yes"/>
      <point x="138.723" y="618.071" type="line" smooth="yes"/>
      <point x="138.723" y="623.392"/>
      <point x="134.275" y="627.839"/>
    </contour>
    <contour>
      <point x="21.5068" y="389.133" type="curve" smooth="yes"/>
      <point x="21.5068" y="356.762"/>
      <point x="47.749" y="330.525"/>
      <point x="80.1152" y="330.525" type="curve" smooth="yes"/>
      <point x="112.486" y="330.525"/>
      <point x="138.723" y="356.766"/>
      <point x="138.723" y="389.133" type="curve" smooth="yes"/>
      <point x="138.723" y="421.503"/>
      <point x="112.482" y="447.741"/>
      <point x="80.1152" y="447.741" type="curve" smooth="yes"/>
      <point x="47.7441" y="447.741"/>
      <point x="21.5068" y="421.499"/>
    </contour>
    <contour>
      <point x="41.043" y="389.133" type="curve" smooth="yes"/>
      <point x="41.043" y="410.713"/>
      <point x="58.5391" y="428.205"/>
      <point x="80.1152" y="428.205" type="curve" smooth="yes"/>
      <point x="101.695" y="428.205"/>
      <point x="119.187" y="410.709"/>
      <point x="119.187" y="389.133" type="curve" smooth="yes"/>
      <point x="119.187" y="367.552"/>
      <point x="101.691" y="350.062"/>
      <point x="80.1152" y="350.062" type="curve" smooth="yes"/>
      <point x="58.5352" y="350.062"/>
      <point x="41.043" y="367.557"/>
    </contour>
    <contour>
      <point x="251.055" y="627.839" type="curve" smooth="yes"/>
      <point x="245.734" y="627.839"/>
      <point x="241.287" y="623.392"/>
      <point x="241.287" y="618.071" type="curve" smooth="yes"/>
      <point x="241.287" y="251.771" type="line" smooth="yes"/>
      <point x="241.287" y="246.449"/>
      <point x="245.734" y="242.003"/>
      <point x="251.055" y="242.003" type="curve" smooth="yes"/>
      <point x="256.376" y="242.003"/>
      <point x="260.823" y="246.449"/>
      <point x="260.823" y="251.771" type="curve" smooth="yes"/>
      <point x="260.823" y="618.071" type="line" smooth="yes"/>
      <point x="260.823" y="623.392"/>
      <point x="256.376" y="627.839"/>
    </contour>
    <contour>
      <point x="19.9805" y="618.071" type="curve" smooth="yes"/>
      <point x="19.9805" y="612.75"/>
      <point x="24.4277" y="608.303"/>
      <point x="29.748" y="608.303" type="curve" smooth="yes"/>
      <point x="350.262" y="608.303" type="line" smooth="yes"/>
      <point x="355.582" y="608.303"/>
      <point x="360.029" y="612.75"/>
      <point x="360.029" y="618.071" type="curve" smooth="yes"/>
      <point x="360.029" y="623.392"/>
      <point x="355.582" y="627.839"/>
      <point x="350.262" y="627.839" type="curve" smooth="yes"/>
      <point x="29.748" y="627.839" type="line" smooth="yes"/>
      <point x="24.4277" y="627.839"/>
      <point x="19.9805" y="623.392"/>
    </contour>
  </outline>
</glyph>
<glyph name="uni0919" format="2">
  <advance width="1000"/>
  <unicode hex="0919"/>
  <outline>
    <contour>
      <point x="573.26" y="591.209" type="curve" smooth="yes"/>
      <point x="567.939" y="591.209"/>
      <point x="563.492" y="586.762"/>
      <point x="563.492" y="581.44" type="curve" smooth="yes"/>
      <point x="563.492" y="532.601" type="line" smooth="yes"/>
      <point x="563.492" y="527.28"/>
      <point x="567.939" y="522.833"/>
      <point x="573.26" y="522.833" type="curve" smooth="yes"/>
      <point x="578.581" y="522.833"/>
      <point x="583.028" y="527.28"/>
      <point x="583.028" y="532.601" type="curve" smooth="yes"/>
      <point x="583.028" y="581.44" type="line" smooth="yes"/>
      <point x="583.028" y="586.762"/>
      <point x="578.581" y="591.209"/>
    </contour>
    <contour>
      <point x="583.028" y="532.601" type="curve" smooth="yes"/>
      <point x="583.028" y="537.922"/>
      <point x="578.581" y="542.369"/>
      <point x="573.26" y="542.369" type="curve" smooth="yes"/>
      <point x="451.16" y="542.369" type="line" smooth="yes"/>
      <point x="445.839" y="542.369"/>
      <point x="441.392" y="537.922"/>
      <point x="441.392" y="532.601" type="curve" smooth="yes"/>
      <point x="441.392" y="527.28"/>
      <point x="445.839" y="522.833"/>
      <point x="451.16" y="522.833" type="curve" smooth="yes"/>
      <point x="573.26" y="522.833" type="line" smooth="yes"/>
      <point x="578.581" y="522.833"/>
      <point x="583.028" y="527.28"/>
    </contour>
    <contour>
      <point x="460.928" y="532.601" type="curve" smooth="yes"/>
      <point x="460.928" y="537.922"/>
      <point x="456.48" y="542.369"/>
      <point x="451.16" y="542.369" type="curve" smooth="yes"/>
      <point x="418.794" y="542.369"/>
      <point x="392.552" y="516.133"/>
      <point x="392.552" y="483.761" type="curve" smooth="yes"/>
      <point x="392.552" y="451.394"/>
      <point x="418.79" y="425.152"/>
      <point x="451.16" y="425.152" type="curve" smooth="yes"/>
      <point x="456.48" y="425.152"/>
      <point x="460.928" y="429.6"/>
      <point x="460.928" y="434.921" type="curve" smooth="yes"/>
      <point x="460.928" y="440.241"/>
      <point x="456.48" y="444.688"/>
      <point x="451.16" y="444.688" type="curve" smooth="yes"/>
      <point x="429.584" y="444.688"/>
      <point x="412.088" y="462.18"/>
      <point x="412.088" y="483.761" type="curve" smooth="yes"/>
      <point x="412.088" y="505.337"/>
      <point x="429.58" y="522.833"/>
      <point x="451.16" y="522.833" type="curve" smooth="yes"/>
      <point x="456.48" y="522.833"/>
      <point x="460.928" y="527.28"/>
    </contour>
    <contour>
      <point x="441.392" y="434.921" type="curve" smooth="yes"/>
      <point x="441.392" y="429.6"/>
      <point x="445.839" y="425.152"/>
      <point x="451.16" y="425.152" type="curve" smooth="yes"/>
      <point x="536.63" y="425.152" type="line" smooth="yes"/>
      <point x="541.951" y="425.152"/>
      <point x="546.398" y="429.6"/>
      <point x="546.398" y="434.921" type="curve" smooth="yes"/>
      <point x="546.398" y="440.241"/>
      <point x="541.951" y="444.688"/>
      <point x="536.63" y="444.688" type="curve" smooth="yes"/>
      <point x="451.16" y="444.688" type="line" smooth="yes"/>
      <point x="445.839" y="444.688"/>
      <point x="441.392" y="440.241"/>
    </contour>
    <contour>
      <point x="526.862" y="434.921" type="curve" smooth="yes"/>
      <point x="526.862" y="429.6"/>
      <point x="531.31" y="425.152"/>
      <point x="536.63" y="425.152" type="curve" smooth="yes"/>
      <point x="571.698" y="425.152"/>
      <point x="600.122" y="396.727"/>
      <point x="600.122" y="361.66" type="curve" smooth="yes"/>
      <point x="600.122" y="326.594"/>
      <point x="571.697" y="298.169"/>
      <point x="536.63" y="298.169" type="curve" smooth="yes"/>
      <point x="531.31" y="298.169"/>
      <point x="526.862" y="293.722"/>
      <point x="526.862" y="288.4" type="curve" smooth="yes"/>
      <point x="526.862" y="283.08"/>
      <point x="531.31" y="278.633"/>
      <point x="536.63" y="278.633" type="curve" smooth="yes"/>
      <point x="582.485" y="278.633"/>
      <point x="619.658" y="315.808"/>
      <point x="619.658" y="361.66" type="curve" smooth="yes"/>
      <point x="619.658" y="407.515"/>
      <point x="582.484" y="444.688"/>
      <point x="536.63" y="444.688" type="curve" smooth="yes"/>
      <point x="531.31" y="444.688"/>
      <point x="526.862" y="440.241"/>
    </contour>
    <contour>
      <point x="546.398" y="288.4" type="curve" smooth="yes"/>
      <point x="546.398" y="293.722"/>
      <point x="541.951" y="298.169"/>
      <point x="536.63" y="298.169" type="curve" smooth="yes"/>
      <point x="414.53" y="298.169" type="line" smooth="yes"/>
      <point x="409.209" y="298.169"/>
      <point x="404.762" y="293.722"/>
      <point x="404.762" y="288.4" type="curve" smooth="yes"/>
      <point x="404.762" y="283.08"/>
      <point x="409.209" y="278.633"/>
      <point x="414.53" y="278.633" type="curve" smooth="yes"/>
      <point x="536.63" y="278.633" type="line" smooth="yes"/>
      <point x="541.951" y="278.633"/>
      <point x="546.398" y="283.08"/>
    </contour>
    <contour>
      <point x="343.712" y="581.44" type="curve" smooth="yes"/>
      <point x="343.712" y="576.12"/>
      <point x="348.159" y="571.673"/>
      <point x="353.479" y="571.673" type="curve" smooth="yes"/>
      <point x="646.521" y="571.673" type="line" smooth="yes"/>
      <point x="651.841" y="571.673"/>
      <point x="656.288" y="576.12"/>
      <point x="656.288" y="581.44" type="curve" smooth="yes"/>
      <point x="656.288" y="586.762"/>
      <point x="651.841" y="591.209"/>
      <point x="646.521" y="591.209" type="curve" smooth="yes"/>
      <point x="353.479" y="591.209" type="line" smooth="yes"/>
      <point x="348.159" y="591.209"/>
      <point x="343.712" y="586.762"/>
    </contour>
    <contour>
      <point x="599.948" y="452.816" type="line" smooth="yes"/>
      <point x="596.984" y="449.853"/>
      <point x="595.768" y="443.184"/>
      <point x="599.948" y="439.003" type="curve" smooth="yes"/>
      <point x="610.31" y="428.642" type="line" smooth="yes"/>
      <point x="613.273" y="425.678"/>
      <point x="619.942" y="424.461"/>
      <point x="624.123" y="428.642" type="curve" smooth="yes"/>
      <point x="634.483" y="439.003" type="line" smooth="yes"/>
      <point x="637.448" y="441.967"/>
      <point x="638.665" y="448.636"/>
      <point x="634.483" y="452.816" type="curve" smooth="yes"/>
      <point x="624.123" y="463.178" type="line" smooth="yes"/>
      <point x="621.158" y="466.142"/>
      <point x="614.49" y="467.358"/>
      <point x="610.31" y="463.178" type="curve" smooth="yes"/>
    </contour>
  </outline>
</glyph>
<glyph name="uni091A" format="2">
  <advance width="1000"/>
  <unicode hex="091A"/>
  <outline>
    <contour>
      <point x="637.362" y="627.839" type="curve" smooth="yes"/>
      <point x="632.042" y="627.839"/>
      <point x="627.595" y="623.392"/>
      <point x="627.595" y="618.071" type="curve" smooth="yes"/>
      <point x="627.595" y="251.771" type="line" smooth="yes"/>
      <point x="627.595" y="246.449"/>
      <point x="632.042" y="242.003"/>
      <point x="637.362" y="242.003" type="curve" smooth="yes"/>
      <point x="642.684" y="242.003"/>
      <point x="647.131" y="246.449"/>
      <point x="647.131" y="251.771" type="curve" smooth="yes"/>
      <point x="647.131" y="618.071" type="line" smooth="yes"/>
      <point x="647.131" y="623.392"/>
      <point x="642.684" y="627.839"/>
    </contour>
    <contour>
      <point x="307.082" y="434.921" type="curve" smooth="yes"/>
      <point x="307.082" y="429.6"/>
      <point x="311.529" y="425.152"/>
      <point x="316.85" y="425.152" type="curve" smooth="yes"/>
      <point x="408.425" y="425.152" type="line" smooth="yes"/>
      <point x="413.746" y="425.152"/>
      <point x="418.193" y="429.6"/>
      <point x="418.193" y="434.921" type="curve" smooth="yes"/>
      <point x="418.193" y="440.241"/>
      <point x="413.746" y="444.688"/>
      <point x="408.425" y="444.688" type="curve" smooth="yes"/>
      <point x="316.85" y="444.688" type="line" smooth="yes"/>
      <point x="311.529" y="444.688"/>
      <point x="307.082" y="440.241"/>
    </contour>
    <contour>
      <point x="414.153" y="442.833" type="curve" smooth="yes"/>
      <point x="409.843" y="445.953"/>
      <point x="403.633" y="444.959"/>
      <point x="400.513" y="440.648" type="curve" smooth="yes"/>
      <point x="373.513" y="403.354"/>
      <point x="375.971" y="352.323"/>
      <point x="406.436" y="317.798" type="curve" smooth="yes"/>
      <point x="436.898" y="283.273"/>
      <point x="487.225" y="274.478"/>
      <point x="527.592" y="296.625" type="curve" smooth="yes"/>
      <point x="532.257" y="299.185"/>
      <point x="534.017" y="305.223"/>
      <point x="531.458" y="309.888" type="curve" smooth="yes"/>
      <point x="528.898" y="314.553"/>
      <point x="522.86" y="316.312"/>
      <point x="518.195" y="313.753" type="curve" smooth="yes"/>
      <point x="485.839" y="296.001"/>
      <point x="445.502" y="303.05"/>
      <point x="421.084" y="330.723" type="curve" smooth="yes"/>
      <point x="396.666" y="358.396"/>
      <point x="394.695" y="399.299"/>
      <point x="416.337" y="429.192" type="curve" smooth="yes"/>
      <point x="419.457" y="433.502"/>
      <point x="418.463" y="439.713"/>
    </contour>
    <contour>
      <point x="514.436" y="300.304" type="curve" smooth="yes"/>
      <point x="517.097" y="295.696"/>
      <point x="523.172" y="294.069"/>
      <point x="527.779" y="296.73" type="curve" smooth="yes"/>
      <point x="580.896" y="327.409"/>
      <point x="622.537" y="374.603"/>
      <point x="646.363" y="431.126" type="curve" smooth="yes"/>
      <point x="648.431" y="436.029"/>
      <point x="646.06" y="441.854"/>
      <point x="641.157" y="443.922" type="curve" smooth="yes"/>
      <point x="636.254" y="445.988"/>
      <point x="630.429" y="443.618"/>
      <point x="628.361" y="438.715" type="curve" smooth="yes"/>
      <point x="606.188" y="386.114"/>
      <point x="567.438" y="342.197"/>
      <point x="518.009" y="313.647" type="curve" smooth="yes"/>
      <point x="513.401" y="310.986"/>
      <point x="511.774" y="304.911"/>
    </contour>
    <contour>
      <point x="284.188" y="618.071" type="curve" smooth="yes"/>
      <point x="284.188" y="612.75"/>
      <point x="288.636" y="608.303"/>
      <point x="293.956" y="608.303" type="curve" smooth="yes"/>
      <point x="706.044" y="608.303" type="line" smooth="yes"/>
      <point x="711.364" y="608.303"/>
      <point x="715.812" y="612.75"/>
      <point x="715.812" y="618.071" type="curve" smooth="yes"/>
      <point x="715.812" y="623.392"/>
      <point x="711.364" y="627.839"/>
      <point x="706.044" y="627.839" type="curve" smooth="yes"/>
      <point x="293.956" y="627.839" type="line" smooth="yes"/>
      <point x="288.636" y="627.839"/>
      <point x="284.188" y="623.392"/>
    </contour>
  </outline>
</glyph>
<glyph name="uni091B" format="2">
  <advance width="1000"/>
  <unicode hex="091B"/>
  <outline>
    <contour>
      <point x="622.101" y="627.839" type="curve" smooth="yes"/>
      <point x="616.779" y="627.839"/>
      <point x="612.332" y="623.392"/>
      <point x="612.332" y="618.071" type="curve" smooth="yes"/>
      <point x="612.332" y="526.496" type="line" smooth="yes"/>
      <point x="612.332" y="521.175"/>
      <point x="616.779" y="516.728"/>
      <point x="622.101" y="516.728" type="curve" smooth="yes"/>
      <point x="627.421" y="516.728"/>
      <point x="631.868" y="521.175"/>
      <point x="631.868" y="526.496" type="curve" smooth="yes"/>
      <point x="631.868" y="618.071" type="line" smooth="yes"/>
      <point x="631.868" y="623.392"/>
      <point x="627.421" y="627.839"/>
    </contour>
    <contour>
      <point x="581.807" y="480.708" type="curve" smooth="yes"/>
      <point x="581.807" y="453.4"/>
      <point x="596.567" y="425.152"/>
      <point x="622.101" y="425.152" type="curve" smooth="yes"/>
      <point x="647.635" y="425.152"/>
      <point x="662.394" y="453.396"/>
      <point x="662.394" y="480.708" type="curve" smooth="yes"/>
      <point x="662.394" y="508.018"/>
      <point x="647.633" y="536.264"/>
      <point x="622.101" y="536.264" type="curve" smooth="yes"/>
      <point x="596.565" y="536.264"/>
      <point x="581.807" y="508.022"/>
    </contour>
    <contour>
      <point x="601.343" y="480.708" type="curve" smooth="yes"/>
      <point x="601.343" y="503.97"/>
      <point x="613.917" y="516.728"/>
      <point x="622.101" y="516.728" type="curve" smooth="yes"/>
      <point x="630.285" y="516.728"/>
      <point x="642.857" y="503.976"/>
      <point x="642.857" y="480.708" type="curve" smooth="yes"/>
      <point x="642.857" y="457.447"/>
      <point x="630.283" y="444.688"/>
      <point x="622.101" y="444.688" type="curve" smooth="yes"/>
      <point x="613.915" y="444.688"/>
      <point x="601.343" y="457.442"/>
    </contour>
    <contour>
      <point x="387.665" y="526.27" type="curve" smooth="yes"/>
      <point x="387.789" y="531.589"/>
      <point x="383.445" y="536.138"/>
      <point x="378.126" y="536.261" type="curve" smooth="yes"/>
      <point x="347.704" y="536.967"/>
      <point x="320.171" y="518.332"/>
      <point x="309.52" y="489.827" type="curve" smooth="yes"/>
      <point x="298.868" y="461.32"/>
      <point x="307.434" y="429.196"/>
      <point x="330.865" y="409.779" type="curve" smooth="yes"/>
      <point x="354.296" y="390.362"/>
      <point x="387.451" y="387.91"/>
      <point x="413.483" y="403.671" type="curve" smooth="yes"/>
      <point x="418.035" y="406.427"/>
      <point x="419.536" y="412.534"/>
      <point x="416.781" y="417.086" type="curve" smooth="yes"/>
      <point x="414.025" y="421.638"/>
      <point x="407.918" y="423.139"/>
      <point x="403.366" y="420.383" type="curve" smooth="yes"/>
      <point x="384.45" y="408.931"/>
      <point x="360.357" y="410.712"/>
      <point x="343.33" y="424.822" type="curve" smooth="yes"/>
      <point x="326.305" y="438.931"/>
      <point x="320.079" y="462.273"/>
      <point x="327.819" y="482.989" type="curve" smooth="yes"/>
      <point x="335.56" y="503.7"/>
      <point x="355.566" y="517.243"/>
      <point x="377.673" y="516.73" type="curve" smooth="yes"/>
      <point x="382.992" y="516.607"/>
      <point x="387.542" y="520.95"/>
    </contour>
    <contour>
      <point x="416.088" y="418.084" type="curve" smooth="yes"/>
      <point x="412.789" y="422.258"/>
      <point x="406.542" y="422.989"/>
      <point x="402.368" y="419.69" type="curve" smooth="yes"/>
      <point x="360.337" y="386.469"/>
      <point x="342.233" y="331.341"/>
      <point x="356.386" y="279.671" type="curve" smooth="yes"/>
      <point x="370.537" y="227.999"/>
      <point x="414.205" y="189.79"/>
      <point x="467.298" y="182.621" type="curve" smooth="yes"/>
      <point x="520.39" y="175.454"/>
      <point x="572.628" y="200.716"/>
      <point x="599.975" y="246.784" type="curve" smooth="yes"/>
      <point x="602.69" y="251.359"/>
      <point x="601.137" y="257.454"/>
      <point x="596.562" y="260.17" type="curve" smooth="yes"/>
      <point x="591.986" y="262.886"/>
      <point x="585.892" y="261.332"/>
      <point x="583.176" y="256.757" type="curve" smooth="yes"/>
      <point x="559.83" y="217.429"/>
      <point x="515.236" y="195.863"/>
      <point x="469.911" y="201.981" type="curve" smooth="yes"/>
      <point x="424.587" y="208.102"/>
      <point x="387.309" y="240.72"/>
      <point x="375.228" y="284.831" type="curve" smooth="yes"/>
      <point x="363.146" y="328.941"/>
      <point x="378.601" y="376.003"/>
      <point x="414.482" y="404.363" type="curve" smooth="yes"/>
      <point x="418.656" y="407.663"/>
      <point x="419.388" y="413.909"/>
    </contour>
    <contour>
      <point x="585.95" y="243.784" type="curve" smooth="yes"/>
      <point x="590.301" y="240.721"/>
      <point x="596.497" y="241.796"/>
      <point x="599.562" y="246.146" type="curve" smooth="yes"/>
      <point x="647.822" y="314.671"/>
      <point x="670.084" y="398.152"/>
      <point x="662.352" y="481.609" type="curve" smooth="yes"/>
      <point x="661.86" y="486.907"/>
      <point x="657.022" y="490.926"/>
      <point x="651.724" y="490.435" type="curve" smooth="yes"/>
      <point x="646.426" y="489.943"/>
      <point x="642.408" y="485.105"/>
      <point x="642.898" y="479.807" type="curve" smooth="yes"/>
      <point x="650.202" y="400.976"/>
      <point x="629.175" y="322.121"/>
      <point x="583.589" y="257.395" type="curve" smooth="yes"/>
      <point x="580.525" y="253.045"/>
      <point x="581.601" y="246.848"/>
    </contour>
    <contour>
      <point x="284.188" y="618.071" type="curve" smooth="yes"/>
      <point x="284.188" y="612.75"/>
      <point x="288.636" y="608.303"/>
      <point x="293.956" y="608.303" type="curve" smooth="yes"/>
      <point x="706.044" y="608.303" type="line" smooth="yes"/>
      <point x="711.364" y="608.303"/>
      <point x="715.812" y="612.75"/>
      <point x="715.812" y="618.071" type="curve" smooth="yes"/>
      <point x="715.812" y="623.392"/>
      <point x="711.364" y="627.839"/>
      <point x="706.044" y="627.839" type="curve" smooth="yes"/>
      <point x="293.956" y="627.839" type="line" smooth="yes"/>
      <point x="288.636" y="627.839"/>
      <point x="284.188" y="623.392"/>
    </contour>
  </outline>
</glyph>
<glyph name="uni091C" format="2">
  <advance width="1000"/>
  <unicode hex="091C"/>
  <outline>
    <contour>
      <point x="637.362" y="627.839" type="curve" smooth="yes"/>
      <point x="632.042" y="627.839"/>
      <point x="627.595" y="623.392"/>
      <point x="627.595" y="618.071" type="curve" smooth="yes"/>
      <point x="627.595" y="251.771" type="line" smooth="yes"/>
      <point x="627.595" y="246.449"/>
      <point x="632.042" y="242.003"/>
      <point x="637.362" y="242.003" type="curve" smooth="yes"/>
      <point x="642.684" y="242.003"/>
      <point x="647.131" y="246.449"/>
      <point x="647.131" y="251.771" type="curve" smooth="yes"/>
      <point x="647.131" y="618.071" type="line" smooth="yes"/>
      <point x="647.131" y="623.392"/>
      <point x="642.684" y="627.839"/>
    </contour>
    <contour>
      <point x="647.131" y="465.445" type="curve" smooth="yes"/>
      <point x="647.131" y="470.767"/>
      <point x="642.684" y="475.214"/>
      <point x="637.362" y="475.214" type="curve" smooth="yes"/>
      <point x="545.787" y="475.214" type="line" smooth="yes"/>
      <point x="540.467" y="475.214"/>
      <point x="536.02" y="470.767"/>
      <point x="536.02" y="465.445" type="curve" smooth="yes"/>
      <point x="536.02" y="460.125"/>
      <point x="540.467" y="455.678"/>
      <point x="545.787" y="455.678" type="curve" smooth="yes"/>
      <point x="637.362" y="455.678" type="line" smooth="yes"/>
      <point x="642.684" y="455.678"/>
      <point x="647.131" y="460.125"/>
    </contour>
    <contour>
      <point x="540.06" y="473.357" type="curve" smooth="yes"/>
      <point x="535.749" y="470.237"/>
      <point x="534.755" y="464.027"/>
      <point x="537.876" y="459.718" type="curve" smooth="yes"/>
      <point x="559.519" y="429.824"/>
      <point x="557.546" y="388.922"/>
      <point x="533.128" y="361.249" type="curve" smooth="yes"/>
      <point x="508.711" y="333.575"/>
      <point x="468.372" y="326.526"/>
      <point x="436.018" y="344.278" type="curve" smooth="yes"/>
      <point x="431.353" y="346.837"/>
      <point x="425.314" y="345.078"/>
      <point x="422.755" y="340.413" type="curve" smooth="yes"/>
      <point x="420.195" y="335.748"/>
      <point x="421.955" y="329.71"/>
      <point x="426.62" y="327.15" type="curve" smooth="yes"/>
      <point x="466.986" y="305.003"/>
      <point x="517.314" y="313.798"/>
      <point x="547.777" y="348.324" type="curve" smooth="yes"/>
      <point x="578.24" y="382.848"/>
      <point x="580.701" y="433.879"/>
      <point x="553.699" y="471.174" type="curve" smooth="yes"/>
      <point x="550.579" y="475.483"/>
      <point x="544.369" y="476.478"/>
    </contour>
    <contour>
      <point x="439.777" y="330.829" type="curve" smooth="yes"/>
      <point x="442.438" y="335.437"/>
      <point x="440.812" y="341.512"/>
      <point x="436.204" y="344.173" type="curve" smooth="yes"/>
      <point x="386.773" y="372.724"/>
      <point x="348.023" y="416.64"/>
      <point x="325.851" y="469.24" type="curve" smooth="yes"/>
      <point x="323.784" y="474.143"/>
      <point x="317.959" y="476.514"/>
      <point x="313.056" y="474.446" type="curve" smooth="yes"/>
      <point x="308.152" y="472.38"/>
      <point x="305.782" y="466.555"/>
      <point x="307.849" y="461.651" type="curve" smooth="yes"/>
      <point x="331.676" y="405.127"/>
      <point x="373.316" y="357.936"/>
      <point x="426.434" y="327.256" type="curve" smooth="yes"/>
      <point x="431.041" y="324.595"/>
      <point x="437.116" y="326.222"/>
    </contour>
    <contour>
      <point x="284.188" y="618.071" type="curve" smooth="yes"/>
      <point x="284.188" y="612.75"/>
      <point x="288.636" y="608.303"/>
      <point x="293.956" y="608.303" type="curve" smooth="yes"/>
      <point x="706.044" y="608.303" type="line" smooth="yes"/>
      <point x="711.364" y="608.303"/>
      <point x="715.812" y="612.75"/>
      <point x="715.812" y="618.071" type="curve" smooth="yes"/>
      <point x="715.812" y="623.392"/>
      <point x="711.364" y="627.839"/>
      <point x="706.044" y="627.839" type="curve" smooth="yes"/>
      <point x="293.956" y="627.839" type="line" smooth="yes"/>
      <point x="288.636" y="627.839"/>
      <point x="284.188" y="623.392"/>
    </contour>
  </outline>
</glyph>
<glyph name="uni091D" format="2">
  <advance width="1000"/>
  <unicode hex="091D"/>
  <outline>
    <contour>
      <point x="637.362" y="627.839" type="curve" smooth="yes"/>
      <point x="632.042" y="627.839"/>
      <point x="627.595" y="623.392"/>
      <point x="627.595" y="618.071" type="curve" smooth="yes"/>
      <point x="627.595" y="251.771" type="line" smooth="yes"/>
      <point x="627.595" y="246.449"/>
      <point x="632.042" y="242.003"/>
      <point x="637.362" y="242.003" type="curve" smooth="yes"/>
      <point x="642.684" y="242.003"/>
      <point x="647.131" y="246.449"/>
      <point x="647.131" y="251.771" type="curve" smooth="yes"/>
      <point x="647.131" y="618.071" type="line" smooth="yes"/>
      <point x="647.131" y="623.392"/>
      <point x="642.684" y="627.839"/>
    </contour>
    <contour>
      <point x="512.916" y="627.839" type="curve" smooth="yes"/>
      <point x="507.595" y="627.839"/>
      <point x="503.147" y="623.392"/>
      <point x="503.147" y="618.071" type="curve" smooth="yes"/>
      <point x="503.147" y="557.021" type="line" smooth="yes"/>
      <point x="503.147" y="551.7"/>
      <point x="507.595" y="547.253"/>
      <point x="512.916" y="547.253" type="curve" smooth="yes"/>
      <point x="518.236" y="547.253"/>
      <point x="522.684" y="551.7"/>
      <point x="522.684" y="557.021" type="curve" smooth="yes"/>
      <point x="522.684" y="618.071" type="line" smooth="yes"/>
      <point x="522.684" y="623.392"/>
      <point x="518.236" y="627.839"/>
    </contour>
    <contour>
      <point x="522.684" y="557.021" type="curve" smooth="yes"/>
      <point x="522.684" y="562.342"/>
      <point x="518.236" y="566.789"/>
      <point x="512.916" y="566.789" type="curve" smooth="yes"/>
      <point x="390.815" y="566.789" type="line" smooth="yes"/>
      <point x="385.495" y="566.789"/>
      <point x="381.048" y="562.342"/>
      <point x="381.048" y="557.021" type="curve" smooth="yes"/>
      <point x="381.048" y="551.7"/>
      <point x="385.495" y="547.253"/>
      <point x="390.815" y="547.253" type="curve" smooth="yes"/>
      <point x="512.916" y="547.253" type="line" smooth="yes"/>
      <point x="518.236" y="547.253"/>
      <point x="522.684" y="551.7"/>
    </contour>
    <contour>
      <point x="400.584" y="557.021" type="curve" smooth="yes"/>
      <point x="400.584" y="562.342"/>
      <point x="396.137" y="566.789"/>
      <point x="390.815" y="566.789" type="curve" smooth="yes"/>
      <point x="356.609" y="566.789"/>
      <point x="332.208" y="533.215"/>
      <point x="332.208" y="495.971" type="curve" smooth="yes"/>
      <point x="332.208" y="458.727"/>
      <point x="356.609" y="425.152"/>
      <point x="390.815" y="425.152" type="curve" smooth="yes"/>
      <point x="396.137" y="425.152"/>
      <point x="400.584" y="429.6"/>
      <point x="400.584" y="434.921" type="curve" smooth="yes"/>
      <point x="400.584" y="440.241"/>
      <point x="396.137" y="444.688"/>
      <point x="390.815" y="444.688" type="curve" smooth="yes"/>
      <point x="371.074" y="444.688"/>
      <point x="351.744" y="465.781"/>
      <point x="351.744" y="495.971" type="curve" smooth="yes"/>
      <point x="351.744" y="526.16"/>
      <point x="371.074" y="547.253"/>
      <point x="390.815" y="547.253" type="curve" smooth="yes"/>
      <point x="396.137" y="547.253"/>
      <point x="400.584" y="551.7"/>
    </contour>
    <contour>
      <point x="381.048" y="434.921" type="curve" smooth="yes"/>
      <point x="381.048" y="429.6"/>
      <point x="385.495" y="425.152"/>
      <point x="390.815" y="425.152" type="curve" smooth="yes"/>
      <point x="476.286" y="425.152" type="line" smooth="yes"/>
      <point x="481.606" y="425.152"/>
      <point x="486.054" y="429.6"/>
      <point x="486.054" y="434.921" type="curve" smooth="yes"/>
      <point x="486.054" y="440.241"/>
      <point x="481.606" y="444.688"/>
      <point x="476.286" y="444.688" type="curve" smooth="yes"/>
      <point x="390.815" y="444.688" type="line" smooth="yes"/>
      <point x="385.495" y="444.688"/>
      <point x="381.048" y="440.241"/>
    </contour>
    <contour>
      <point x="466.518" y="434.921" type="curve" smooth="yes"/>
      <point x="466.518" y="429.6"/>
      <point x="470.965" y="425.152"/>
      <point x="476.286" y="425.152" type="curve" smooth="yes"/>
      <point x="509.513" y="425.152"/>
      <point x="539.778" y="390.393"/>
      <point x="539.778" y="343.346" type="curve" smooth="yes"/>
      <point x="539.778" y="296.297"/>
      <point x="509.514" y="261.538"/>
      <point x="476.286" y="261.538" type="curve" smooth="yes"/>
      <point x="470.965" y="261.538"/>
      <point x="466.518" y="257.091"/>
      <point x="466.518" y="251.771" type="curve" smooth="yes"/>
      <point x="466.518" y="246.449"/>
      <point x="470.965" y="242.003"/>
      <point x="476.286" y="242.003" type="curve" smooth="yes"/>
      <point x="523.979" y="242.003"/>
      <point x="559.313" y="289.242"/>
      <point x="559.313" y="343.346" type="curve" smooth="yes"/>
      <point x="559.313" y="397.448"/>
      <point x="523.979" y="444.688"/>
      <point x="476.286" y="444.688" type="curve" smooth="yes"/>
      <point x="470.965" y="444.688"/>
      <point x="466.518" y="440.241"/>
    </contour>
    <contour>
      <point x="486.054" y="251.771" type="curve" smooth="yes"/>
      <point x="486.054" y="257.091"/>
      <point x="481.606" y="261.538"/>
      <point x="476.286" y="261.538" type="curve" smooth="yes"/>
      <point x="354.186" y="261.538" type="line" smooth="yes"/>
      <point x="348.865" y="261.538"/>
      <point x="344.418" y="257.091"/>
      <point x="344.418" y="251.771" type="curve" smooth="yes"/>
      <point x="344.418" y="246.449"/>
      <point x="348.865" y="242.003"/>
      <point x="354.186" y="242.003" type="curve" smooth="yes"/>
      <point x="476.286" y="242.003" type="line" smooth="yes"/>
      <point x="481.606" y="242.003"/>
      <point x="486.054" y="246.449"/>
    </contour>
    <contour>
      <point x="363.954" y="251.771" type="curve" smooth="yes"/>
      <point x="363.954" y="257.091"/>
      <point x="359.507" y="261.538"/>
      <point x="354.186" y="261.538" type="curve" smooth="yes"/>
      <point x="351.72" y="261.538"/>
      <point x="347.662" y="263.742"/>
      <point x="345.875" y="270.107" type="curve" smooth="yes"/>
      <point x="344.104" y="276.42"/>
      <point x="346.044" y="283.333"/>
      <point x="349.364" y="286.653" type="curve" smooth="yes"/>
      <point x="352.365" y="289.654"/>
      <point x="355.239" y="289.69"/>
      <point x="358.122" y="287.438" type="curve" smooth="yes"/>
      <point x="361.442" y="284.844"/>
      <point x="364.087" y="278.479"/>
      <point x="362.888" y="271.816" type="curve" smooth="yes"/>
      <point x="361.944" y="266.58"/>
      <point x="365.533" y="261.415"/>
      <point x="370.77" y="260.472" type="curve" smooth="yes"/>
      <point x="376.007" y="259.529"/>
      <point x="381.172" y="263.118"/>
      <point x="382.114" y="268.354" type="curve" smooth="yes"/>
      <point x="384.415" y="281.137"/>
      <point x="380.352" y="294.861"/>
      <point x="370.15" y="302.832" type="curve" smooth="yes"/>
      <point x="359.514" y="311.144"/>
      <point x="345.003" y="309.918"/>
      <point x="335.551" y="300.469" type="curve" smooth="yes"/>
      <point x="326.42" y="291.336"/>
      <point x="323.56" y="277.325"/>
      <point x="327.065" y="264.829" type="curve" smooth="yes"/>
      <point x="330.559" y="252.388"/>
      <point x="340.708" y="242.003"/>
      <point x="354.186" y="242.003" type="curve" smooth="yes"/>
      <point x="359.507" y="242.003"/>
      <point x="363.954" y="246.449"/>
    </contour>
    <contour>
      <point x="372.501" y="279.854" type="curve" smooth="yes"/>
      <point x="367.18" y="279.854"/>
      <point x="362.732" y="275.406"/>
      <point x="362.732" y="270.086" type="curve" smooth="yes"/>
      <point x="362.732" y="205.982" type="line" smooth="yes"/>
      <point x="362.732" y="200.662"/>
      <point x="367.18" y="196.215"/>
      <point x="372.501" y="196.215" type="curve" smooth="yes"/>
      <point x="377.821" y="196.215"/>
      <point x="382.269" y="200.662"/>
      <point x="382.269" y="205.982" type="curve" smooth="yes"/>
      <point x="382.269" y="270.086" type="line" smooth="yes"/>
      <point x="382.269" y="275.406"/>
      <point x="377.821" y="279.854"/>
    </contour>
    <contour>
      <point x="531.44" y="389.133" type="curve" smooth="yes"/>
      <point x="531.44" y="383.812"/>
      <point x="535.888" y="379.365"/>
      <point x="541.209" y="379.365" type="curve" smooth="yes"/>
      <point x="637.362" y="379.365" type="line" smooth="yes"/>
      <point x="642.684" y="379.365"/>
      <point x="647.131" y="383.812"/>
      <point x="647.131" y="389.133" type="curve" smooth="yes"/>
      <point x="647.131" y="394.454"/>
      <point x="642.684" y="398.901"/>
      <point x="637.362" y="398.901" type="curve" smooth="yes"/>
      <point x="541.209" y="398.901" type="line" smooth="yes"/>
      <point x="535.888" y="398.901"/>
      <point x="531.44" y="394.454"/>
    </contour>
    <contour>
      <point x="284.188" y="618.071" type="curve" smooth="yes"/>
      <point x="284.188" y="612.75"/>
      <point x="288.636" y="608.303"/>
      <point x="293.956" y="608.303" type="curve" smooth="yes"/>
      <point x="706.044" y="608.303" type="line" smooth="yes"/>
      <point x="711.364" y="608.303"/>
      <point x="715.812" y="612.75"/>
      <point x="715.812" y="618.071" type="curve" smooth="yes"/>
      <point x="715.812" y="623.392"/>
      <point x="711.364" y="627.839"/>
      <point x="706.044" y="627.839" type="curve" smooth="yes"/>
      <point x="293.956" y="627.839" type="line" smooth="yes"/>
      <point x="288.636" y="627.839"/>
      <point x="284.188" y="623.392"/>
    </contour>
  </outline>
</glyph>
<glyph name="uni091E" format="2">
  <advance width="1000"/>
  <unicode hex="091E"/>
  <outline>
    <contour>
      <point x="637.362" y="627.839" type="curve" smooth="yes"/>
      <point x="632.042" y="627.839"/>
      <point x="627.595" y="623.392"/>
      <point x="627.595" y="618.071" type="curve" smooth="yes"/>
      <point x="627.595" y="251.771" type="line" smooth="yes"/>
      <point x="627.595" y="246.449"/>
      <point x="632.042" y="242.003"/>
      <point x="637.362" y="242.003" type="curve" smooth="yes"/>
      <point x="642.684" y="242.003"/>
      <point x="647.131" y="246.449"/>
      <point x="647.131" y="251.771" type="curve" smooth="yes"/>
      <point x="647.131" y="618.071" type="line" smooth="yes"/>
      <point x="647.131" y="623.392"/>
      <point x="642.684" y="627.839"/>
    </contour>
    <contour>
      <point x="531.44" y="434.921" type="curve" smooth="yes"/>
      <point x="531.44" y="429.6"/>
      <point x="535.888" y="425.152"/>
      <point x="541.209" y="425.152" type="curve" smooth="yes"/>
      <point x="637.362" y="425.152" type="line" smooth="yes"/>
      <point x="642.684" y="425.152"/>
      <point x="647.131" y="429.6"/>
      <point x="647.131" y="434.921" type="curve" smooth="yes"/>
      <point x="647.131" y="440.241"/>
      <point x="642.684" y="444.688"/>
      <point x="637.362" y="444.688" type="curve" smooth="yes"/>
      <point x="541.209" y="444.688" type="line" smooth="yes"/>
      <point x="535.888" y="444.688"/>
      <point x="531.44" y="440.241"/>
    </contour>
    <contour>
      <point x="445.486" y="506.619" type="curve" smooth="yes"/>
      <point x="446.337" y="501.366"/>
      <point x="451.438" y="497.688"/>
      <point x="456.69" y="498.538" type="curve" smooth="yes"/>
      <point x="481.87" y="502.617"/>
      <point x="507.085" y="491.46"/>
      <point x="521.003" y="470.083" type="curve" smooth="yes"/>
      <point x="534.921" y="448.707"/>
      <point x="534.921" y="421.133"/>
      <point x="521.003" y="399.757" type="curve" smooth="yes"/>
      <point x="507.085" y="378.381"/>
      <point x="481.869" y="367.225"/>
      <point x="456.69" y="371.303" type="curve" smooth="yes"/>
      <point x="451.438" y="372.153"/>
      <point x="446.337" y="368.475"/>
      <point x="445.486" y="363.223" type="curve" smooth="yes"/>
      <point x="444.635" y="357.97"/>
      <point x="448.314" y="352.869"/>
      <point x="453.566" y="352.019" type="curve" smooth="yes"/>
      <point x="486.38" y="346.703"/>
      <point x="519.238" y="361.242"/>
      <point x="537.374" y="389.098" type="curve" smooth="yes"/>
      <point x="555.513" y="416.955"/>
      <point x="555.512" y="452.887"/>
      <point x="537.374" y="480.743" type="curve" smooth="yes"/>
      <point x="519.238" y="508.6"/>
      <point x="486.379" y="523.138"/>
      <point x="453.566" y="517.823" type="curve" smooth="yes"/>
      <point x="448.314" y="516.973"/>
      <point x="444.635" y="511.871"/>
    </contour>
    <contour>
      <point x="464.722" y="359.82" type="curve" smooth="yes"/>
      <point x="465.724" y="365.046"/>
      <point x="462.193" y="370.252"/>
      <point x="456.968" y="371.254" type="curve" smooth="yes"/>
      <point x="401.189" y="381.951"/>
      <point x="355.226" y="421.348"/>
      <point x="336.122" y="474.836" type="curve" smooth="yes"/>
      <point x="334.332" y="479.847"/>
      <point x="328.648" y="482.539"/>
      <point x="323.638" y="480.75" type="curve" smooth="yes"/>
      <point x="318.627" y="478.96"/>
      <point x="315.935" y="473.276"/>
      <point x="317.725" y="468.266" type="curve" smooth="yes"/>
      <point x="339.154" y="408.263"/>
      <point x="390.716" y="364.068"/>
      <point x="453.288" y="352.067" type="curve" smooth="yes"/>
      <point x="458.514" y="351.065"/>
      <point x="463.719" y="354.595"/>
    </contour>
    <contour>
      <point x="284.188" y="618.071" type="curve" smooth="yes"/>
      <point x="284.188" y="612.75"/>
      <point x="288.636" y="608.303"/>
      <point x="293.956" y="608.303" type="curve" smooth="yes"/>
      <point x="706.044" y="608.303" type="line" smooth="yes"/>
      <point x="711.364" y="608.303"/>
      <point x="715.812" y="612.75"/>
      <point x="715.812" y="618.071" type="curve" smooth="yes"/>
      <point x="715.812" y="623.392"/>
      <point x="711.364" y="627.839"/>
      <point x="706.044" y="627.839" type="curve" smooth="yes"/>
      <point x="293.956" y="627.839" type="line" smooth="yes"/>
      <point x="288.636" y="627.839"/>
      <point x="284.188" y="623.392"/>
    </contour>
  </outline>
</glyph>
<glyph name="uni091F" format="2">
  <advance width="1000"/>
  <unicode hex="091F"/>
  <outline>
    <contour>
      <point x="561.05" y="627.839" type="curve" smooth="yes"/>
      <point x="555.729" y="627.839"/>
      <point x="551.282" y="623.392"/>
      <point x="551.282" y="618.071" type="curve" smooth="yes"/>
      <point x="551.282" y="495.971" type="line" smooth="yes"/>
      <point x="551.282" y="490.65"/>
      <point x="555.729" y="486.203"/>
      <point x="561.05" y="486.203" type="curve" smooth="yes"/>
      <point x="566.371" y="486.203"/>
      <point x="570.818" y="490.65"/>
      <point x="570.818" y="495.971" type="curve" smooth="yes"/>
      <point x="570.818" y="618.071" type="line" smooth="yes"/>
      <point x="570.818" y="623.392"/>
      <point x="566.371" y="627.839"/>
    </contour>
    <contour>
      <point x="570.803" y="495.415" type="curve" smooth="yes"/>
      <point x="571.104" y="500.728"/>
      <point x="566.918" y="505.421"/>
      <point x="561.605" y="505.723" type="curve" smooth="yes"/>
      <point x="516.841" y="508.271"/>
      <point x="472.763" y="494.378"/>
      <point x="439.186" y="466.905" type="curve" smooth="yes"/>
      <point x="405.606" y="439.431"/>
      <point x="385.352" y="400.575"/>
      <point x="383.405" y="359.065" type="curve" smooth="yes"/>
      <point x="383.156" y="353.751"/>
      <point x="387.39" y="349.1"/>
      <point x="392.705" y="348.851" type="curve" smooth="yes"/>
      <point x="398.02" y="348.602"/>
      <point x="402.67" y="352.836"/>
      <point x="402.92" y="358.15" type="curve" smooth="yes"/>
      <point x="404.593" y="393.824"/>
      <point x="421.973" y="427.58"/>
      <point x="451.557" y="451.785" type="curve" smooth="yes"/>
      <point x="481.145" y="475.993"/>
      <point x="520.447" y="488.499"/>
      <point x="560.495" y="486.219" type="curve" smooth="yes"/>
      <point x="565.807" y="485.916"/>
      <point x="570.5" y="490.104"/>
    </contour>
    <contour>
      <point x="393.649" y="368.364" type="curve" smooth="yes"/>
      <point x="388.335" y="368.629"/>
      <point x="383.672" y="364.409"/>
      <point x="383.406" y="359.095" type="curve" smooth="yes"/>
      <point x="379.799" y="286.798"/>
      <point x="435.66" y="224.4"/>
      <point x="512.199" y="212.121" type="curve" smooth="yes"/>
      <point x="588.677" y="199.852"/>
      <point x="664.082" y="240.899"/>
      <point x="687.805" y="309.634" type="curve" smooth="yes"/>
      <point x="689.541" y="314.663"/>
      <point x="686.788" y="320.318"/>
      <point x="681.758" y="322.054" type="curve" smooth="yes"/>
      <point x="676.729" y="323.79"/>
      <point x="671.074" y="321.037"/>
      <point x="669.338" y="316.008" type="curve" smooth="yes"/>
      <point x="649.102" y="257.376"/>
      <point x="583.42" y="220.48"/>
      <point x="515.294" y="231.41" type="curve" smooth="yes"/>
      <point x="447.233" y="242.329"/>
      <point x="399.872" y="297.066"/>
      <point x="402.918" y="358.121" type="curve" smooth="yes"/>
      <point x="403.184" y="363.436"/>
      <point x="398.963" y="368.099"/>
    </contour>
    <contour>
      <point x="307.082" y="618.071" type="curve" smooth="yes"/>
      <point x="307.082" y="612.75"/>
      <point x="311.529" y="608.303"/>
      <point x="316.85" y="608.303" type="curve" smooth="yes"/>
      <point x="531.136" y="608.303" type="line" smooth="yes"/>
      <point x="536.456" y="608.303"/>
      <point x="540.903" y="612.75"/>
      <point x="540.903" y="618.071" type="curve" smooth="yes"/>
      <point x="540.903" y="623.392"/>
      <point x="536.456" y="627.839"/>
      <point x="531.136" y="627.839" type="curve" smooth="yes"/>
      <point x="316.85" y="627.839" type="line" smooth="yes"/>
      <point x="311.529" y="627.839"/>
      <point x="307.082" y="623.392"/>
    </contour>
    <contour>
      <point x="521.367" y="618.071" type="curve" smooth="yes"/>
      <point x="521.367" y="612.75"/>
      <point x="525.814" y="608.303"/>
      <point x="531.136" y="608.303" type="curve" smooth="yes"/>
      <point x="683.15" y="608.303" type="line" smooth="yes"/>
      <point x="688.471" y="608.303"/>
      <point x="692.918" y="612.75"/>
      <point x="692.918" y="618.071" type="curve" smooth="yes"/>
      <point x="692.918" y="623.392"/>
      <point x="688.471" y="627.839"/>
      <point x="683.15" y="627.839" type="curve" smooth="yes"/>
      <point x="531.136" y="627.839" type="line" smooth="yes"/>
      <point x="525.814" y="627.839"/>
      <point x="521.367" y="623.392"/>
    </contour>
  </outline>
</glyph>
<glyph name="uni0920" format="2">
  <advance width="1000"/>
  <unicode hex="0920"/>
  <outline>
    <contour>
      <point x="352.869" y="357.082" type="curve" smooth="yes"/>
      <point x="352.869" y="282.532"/>
      <point x="419.625" y="223.688"/>
      <point x="500" y="223.688" type="curve" smooth="yes"/>
      <point x="580.372" y="223.688"/>
      <point x="647.131" y="282.536"/>
      <point x="647.131" y="357.082" type="curve" smooth="yes"/>
      <point x="647.131" y="431.631"/>
      <point x="580.375" y="490.477"/>
      <point x="500" y="490.477" type="curve" smooth="yes"/>
      <point x="419.628" y="490.477"/>
      <point x="352.869" y="431.628"/>
    </contour>
    <contour>
      <point x="372.405" y="357.082" type="curve" smooth="yes"/>
      <point x="372.405" y="419.09"/>
      <point x="428.646" y="470.94"/>
      <point x="500" y="470.94" type="curve" smooth="yes"/>
      <point x="571.352" y="470.94"/>
      <point x="627.595" y="419.087"/>
      <point x="627.595" y="357.082" type="curve" smooth="yes"/>
      <point x="627.595" y="295.073"/>
      <point x="571.354" y="243.224"/>
      <point x="500" y="243.224" type="curve" smooth="yes"/>
      <point x="428.648" y="243.224"/>
      <point x="372.405" y="295.077"/>
    </contour>
    <contour>
      <point x="500" y="627.839" type="curve" smooth="yes"/>
      <point x="494.68" y="627.839"/>
      <point x="490.232" y="623.392"/>
      <point x="490.232" y="618.071" type="curve" smooth="yes"/>
      <point x="490.232" y="480.708" type="line" smooth="yes"/>
      <point x="490.232" y="475.388"/>
      <point x="494.68" y="470.94"/>
      <point x="500" y="470.94" type="curve" smooth="yes"/>
      <point x="505.32" y="470.94"/>
      <point x="509.768" y="475.388"/>
      <point x="509.768" y="480.708" type="curve" smooth="yes"/>
      <point x="509.768" y="618.071" type="line" smooth="yes"/>
      <point x="509.768" y="623.392"/>
      <point x="505.32" y="627.839"/>
    </contour>
    <contour>
      <point x="329.976" y="618.071" type="curve" smooth="yes"/>
      <point x="329.976" y="612.75"/>
      <point x="334.423" y="608.303"/>
      <point x="339.743" y="608.303" type="curve" smooth="yes"/>
      <point x="660.257" y="608.303" type="line" smooth="yes"/>
      <point x="665.577" y="608.303"/>
      <point x="670.024" y="612.75"/>
      <point x="670.024" y="618.071" type="curve" smooth="yes"/>
      <point x="670.024" y="623.392"/>
      <point x="665.577" y="627.839"/>
      <point x="660.257" y="627.839" type="curve" smooth="yes"/>
      <point x="339.743" y="627.839" type="line" smooth="yes"/>
      <point x="334.423" y="627.839"/>
      <point x="329.976" y="623.392"/>
    </contour>
  </outline>
</glyph>
<glyph name="uni0921" format="2">
  <advance width="1000"/>
  <unicode hex="0921"/>
  <outline>
    <contour>
      <point x="591.575" y="627.839" type="curve" smooth="yes"/>
      <point x="586.254" y="627.839"/>
      <point x="581.807" y="623.392"/>
      <point x="581.807" y="618.071" type="curve" smooth="yes"/>
      <point x="581.807" y="557.021" type="line" smooth="yes"/>
      <point x="581.807" y="551.7"/>
      <point x="586.254" y="547.253"/>
      <point x="591.575" y="547.253" type="curve" smooth="yes"/>
      <point x="596.896" y="547.253"/>
      <point x="601.343" y="551.7"/>
      <point x="601.343" y="557.021" type="curve" smooth="yes"/>
      <point x="601.343" y="618.071" type="line" smooth="yes"/>
      <point x="601.343" y="623.392"/>
      <point x="596.896" y="627.839"/>
    </contour>
    <contour>
      <point x="601.343" y="557.021" type="curve" smooth="yes"/>
      <point x="601.343" y="562.342"/>
      <point x="596.896" y="566.789"/>
      <point x="591.575" y="566.789" type="curve" smooth="yes"/>
      <point x="438.95" y="566.789" type="line" smooth="yes"/>
      <point x="433.629" y="566.789"/>
      <point x="429.182" y="562.342"/>
      <point x="429.182" y="557.021" type="curve" smooth="yes"/>
      <point x="429.182" y="551.7"/>
      <point x="433.629" y="547.253"/>
      <point x="438.95" y="547.253" type="curve" smooth="yes"/>
      <point x="591.575" y="547.253" type="line" smooth="yes"/>
      <point x="596.896" y="547.253"/>
      <point x="601.343" y="551.7"/>
    </contour>
    <contour>
      <point x="448.718" y="557.021" type="curve" smooth="yes"/>
      <point x="448.718" y="562.342"/>
      <point x="444.271" y="566.789"/>
      <point x="438.95" y="566.789" type="curve" smooth="yes"/>
      <point x="399.84" y="566.789"/>
      <point x="368.132" y="535.081"/>
      <point x="368.132" y="495.971" type="curve" smooth="yes"/>
      <point x="368.132" y="456.86"/>
      <point x="399.84" y="425.152"/>
      <point x="438.95" y="425.152" type="curve" smooth="yes"/>
      <point x="444.271" y="425.152"/>
      <point x="448.718" y="429.6"/>
      <point x="448.718" y="434.921" type="curve" smooth="yes"/>
      <point x="448.718" y="440.241"/>
      <point x="444.271" y="444.688"/>
      <point x="438.95" y="444.688" type="curve" smooth="yes"/>
      <point x="410.626" y="444.688"/>
      <point x="387.668" y="467.646"/>
      <point x="387.668" y="495.971" type="curve" smooth="yes"/>
      <point x="387.668" y="524.294"/>
      <point x="410.626" y="547.253"/>
      <point x="438.95" y="547.253" type="curve" smooth="yes"/>
      <point x="444.271" y="547.253"/>
      <point x="448.718" y="551.7"/>
    </contour>
    <contour>
      <point x="429.182" y="434.921" type="curve" smooth="yes"/>
      <point x="429.182" y="429.6"/>
      <point x="433.629" y="425.152"/>
      <point x="438.95" y="425.152" type="curve" smooth="yes"/>
      <point x="545.787" y="425.152" type="line" smooth="yes"/>
      <point x="551.108" y="425.152"/>
      <point x="555.556" y="429.6"/>
      <point x="555.556" y="434.921" type="curve" smooth="yes"/>
      <point x="555.556" y="440.241"/>
      <point x="551.108" y="444.688"/>
      <point x="545.787" y="444.688" type="curve" smooth="yes"/>
      <point x="438.95" y="444.688" type="line" smooth="yes"/>
      <point x="433.629" y="444.688"/>
      <point x="429.182" y="440.241"/>
    </contour>
    <contour>
      <point x="536.02" y="434.921" type="curve" smooth="yes"/>
      <point x="536.02" y="429.6"/>
      <point x="540.467" y="425.152"/>
      <point x="545.787" y="425.152" type="curve" smooth="yes"/>
      <point x="590.971" y="425.152"/>
      <point x="627.595" y="388.527"/>
      <point x="627.595" y="343.346" type="curve" smooth="yes"/>
      <point x="627.595" y="298.163"/>
      <point x="590.971" y="261.538"/>
      <point x="545.787" y="261.538" type="curve" smooth="yes"/>
      <point x="540.467" y="261.538"/>
      <point x="536.02" y="257.091"/>
      <point x="536.02" y="251.771" type="curve" smooth="yes"/>
      <point x="536.02" y="246.449"/>
      <point x="540.467" y="242.003"/>
      <point x="545.787" y="242.003" type="curve" smooth="yes"/>
      <point x="601.757" y="242.003"/>
      <point x="647.131" y="287.376"/>
      <point x="647.131" y="343.346" type="curve" smooth="yes"/>
      <point x="647.131" y="399.313"/>
      <point x="601.757" y="444.688"/>
      <point x="545.787" y="444.688" type="curve" smooth="yes"/>
      <point x="540.467" y="444.688"/>
      <point x="536.02" y="440.241"/>
    </contour>
    <contour>
      <point x="555.556" y="251.771" type="curve" smooth="yes"/>
      <point x="555.556" y="257.091"/>
      <point x="551.108" y="261.538"/>
      <point x="545.787" y="261.538" type="curve" smooth="yes"/>
      <point x="393.162" y="261.538" type="line" smooth="yes"/>
      <point x="387.842" y="261.538"/>
      <point x="383.395" y="257.091"/>
      <point x="383.395" y="251.771" type="curve" smooth="yes"/>
      <point x="383.395" y="246.449"/>
      <point x="387.842" y="242.003"/>
      <point x="393.162" y="242.003" type="curve" smooth="yes"/>
      <point x="545.787" y="242.003" type="line" smooth="yes"/>
      <point x="551.108" y="242.003"/>
      <point x="555.556" y="246.449"/>
    </contour>
    <contour>
      <point x="329.976" y="618.071" type="curve" smooth="yes"/>
      <point x="329.976" y="612.75"/>
      <point x="334.423" y="608.303"/>
      <point x="339.743" y="608.303" type="curve" smooth="yes"/>
      <point x="660.257" y="608.303" type="line" smooth="yes"/>
      <point x="665.577" y="608.303"/>
      <point x="670.024" y="612.75"/>
      <point x="670.024" y="618.071" type="curve" smooth="yes"/>
      <point x="670.024" y="623.392"/>
      <point x="665.577" y="627.839"/>
      <point x="660.257" y="627.839" type="curve" smooth="yes"/>
      <point x="339.743" y="627.839" type="line" smooth="yes"/>
      <point x="334.423" y="627.839"/>
      <point x="329.976" y="623.392"/>
    </contour>
  </outline>
</glyph>
<glyph name="uni0922" format="2">
  <advance width="1000"/>
  <unicode hex="0922"/>
  <outline>
    <contour>
      <point x="561.05" y="627.839" type="curve" smooth="yes"/>
      <point x="555.729" y="627.839"/>
      <point x="551.282" y="623.392"/>
      <point x="551.282" y="618.071" type="curve" smooth="yes"/>
      <point x="551.282" y="495.971" type="line" smooth="yes"/>
      <point x="551.282" y="490.65"/>
      <point x="555.729" y="486.203"/>
      <point x="561.05" y="486.203" type="curve" smooth="yes"/>
      <point x="566.371" y="486.203"/>
      <point x="570.818" y="490.65"/>
      <point x="570.818" y="495.971" type="curve" smooth="yes"/>
      <point x="570.818" y="618.071" type="line" smooth="yes"/>
      <point x="570.818" y="623.392"/>
      <point x="566.371" y="627.839"/>
    </contour>
    <contour>
      <point x="347.375" y="353.113" type="curve" smooth="yes"/>
      <point x="342.054" y="353.113"/>
      <point x="337.606" y="348.666"/>
      <point x="337.606" y="343.346" type="curve" smooth="yes"/>
      <point x="337.606" y="277.664"/>
      <point x="377.172" y="218.45"/>
      <point x="437.854" y="193.313" type="curve" smooth="yes"/>
      <point x="498.537" y="168.178"/>
      <point x="568.385" y="182.071"/>
      <point x="614.828" y="228.516" type="curve" smooth="yes"/>
      <point x="618.591" y="232.278"/>
      <point x="618.591" y="238.567"/>
      <point x="614.828" y="242.33" type="curve" smooth="yes"/>
      <point x="611.066" y="246.092"/>
      <point x="604.776" y="246.092"/>
      <point x="601.015" y="242.33" type="curve" smooth="yes"/>
      <point x="560.159" y="201.473"/>
      <point x="498.713" y="189.251"/>
      <point x="445.33" y="211.362" type="curve" smooth="yes"/>
      <point x="391.949" y="233.475"/>
      <point x="357.143" y="285.565"/>
      <point x="357.143" y="343.346" type="curve" smooth="yes"/>
      <point x="357.143" y="348.666"/>
      <point x="352.695" y="353.113"/>
    </contour>
    <contour>
      <point x="347.375" y="333.577" type="curve" smooth="yes"/>
      <point x="352.695" y="333.577"/>
      <point x="357.143" y="338.024"/>
      <point x="357.143" y="343.346" type="curve" smooth="yes"/>
      <point x="357.143" y="420.736"/>
      <point x="433.242" y="486.203"/>
      <point x="530.525" y="486.203" type="curve" smooth="yes"/>
      <point x="561.05" y="486.203" type="line" smooth="yes"/>
      <point x="566.371" y="486.203"/>
      <point x="570.818" y="490.65"/>
      <point x="570.818" y="495.971" type="curve" smooth="yes"/>
      <point x="570.818" y="501.291"/>
      <point x="566.371" y="505.738"/>
      <point x="561.05" y="505.738" type="curve" smooth="yes"/>
      <point x="530.525" y="505.738" type="line" smooth="yes"/>
      <point x="425.506" y="505.738"/>
      <point x="337.606" y="434.538"/>
      <point x="337.606" y="343.346" type="curve" smooth="yes"/>
      <point x="337.606" y="338.024"/>
      <point x="342.054" y="333.577"/>
    </contour>
    <contour>
      <point x="519.99" y="267.8" type="curve" smooth="yes"/>
      <point x="519.99" y="237.116"/>
      <point x="544.864" y="212.244"/>
      <point x="575.546" y="212.244" type="curve" smooth="yes"/>
      <point x="606.228" y="212.244"/>
      <point x="631.102" y="237.118"/>
      <point x="631.102" y="267.8" type="curve" smooth="yes"/>
      <point x="631.102" y="298.482"/>
      <point x="606.227" y="323.356"/>
      <point x="575.546" y="323.356" type="curve" smooth="yes"/>
      <point x="544.862" y="323.356"/>
      <point x="519.99" y="298.48"/>
    </contour>
    <contour>
      <point x="539.526" y="267.8" type="curve" smooth="yes"/>
      <point x="539.526" y="287.694"/>
      <point x="555.653" y="303.82"/>
      <point x="575.546" y="303.82" type="curve" smooth="yes"/>
      <point x="595.439" y="303.82"/>
      <point x="611.565" y="287.692"/>
      <point x="611.565" y="267.8" type="curve" smooth="yes"/>
      <point x="611.565" y="247.905"/>
      <point x="595.438" y="231.78"/>
      <point x="575.546" y="231.78" type="curve" smooth="yes"/>
      <point x="555.651" y="231.78"/>
      <point x="539.526" y="247.906"/>
    </contour>
    <contour>
      <point x="614.828" y="242.33" type="curve" smooth="yes"/>
      <point x="611.066" y="246.092"/>
      <point x="604.776" y="246.092"/>
      <point x="601.015" y="242.33" type="curve" smooth="yes"/>
      <point x="560.158" y="201.473"/>
      <point x="498.713" y="189.251"/>
      <point x="445.33" y="211.362" type="curve" smooth="yes"/>
      <point x="391.948" y="233.475"/>
      <point x="357.143" y="285.565"/>
      <point x="357.143" y="343.346" type="curve" smooth="yes"/>
      <point x="357.143" y="420.736"/>
      <point x="433.242" y="486.203"/>
      <point x="530.525" y="486.203" type="curve" smooth="yes"/>
      <point x="561.05" y="486.203" type="line" smooth="yes"/>
      <point x="566.371" y="486.203"/>
      <point x="570.818" y="490.65"/>
      <point x="570.818" y="495.971" type="curve" smooth="yes"/>
      <point x="570.818" y="501.291"/>
      <point x="566.371" y="505.738"/>
      <point x="561.05" y="505.738" type="curve" smooth="yes"/>
      <point x="530.525" y="505.738" type="line" smooth="yes"/>
      <point x="425.506" y="505.738"/>
      <point x="337.606" y="434.538"/>
      <point x="337.606" y="343.346" type="curve" smooth="yes"/>
      <point x="337.606" y="277.663"/>
      <point x="377.173" y="218.45"/>
      <point x="437.854" y="193.313" type="curve" smooth="yes"/>
      <point x="498.538" y="168.178"/>
      <point x="568.386" y="182.071"/>
      <point x="614.828" y="228.516" type="curve" smooth="yes"/>
      <point x="618.591" y="232.278"/>
      <point x="618.591" y="238.567"/>
    </contour>
    <contour>
      <point x="284.188" y="618.071" type="curve" smooth="yes"/>
      <point x="284.188" y="612.75"/>
      <point x="288.636" y="608.303"/>
      <point x="293.956" y="608.303" type="curve" smooth="yes"/>
      <point x="706.044" y="608.303" type="line" smooth="yes"/>
      <point x="711.364" y="608.303"/>
      <point x="715.812" y="612.75"/>
      <point x="715.812" y="618.071" type="curve" smooth="yes"/>
      <point x="715.812" y="623.392"/>
      <point x="711.364" y="627.839"/>
      <point x="706.044" y="627.839" type="curve" smooth="yes"/>
      <point x="293.956" y="627.839" type="line" smooth="yes"/>
      <point x="288.636" y="627.839"/>
      <point x="284.188" y="623.392"/>
    </contour>
  </outline>
</glyph>
<glyph name="uni0923" format="2">
  <advance width="1000"/>
  <unicode hex="0923"/>
  <outline>
    <contour>
      <point x="622.101" y="627.839" type="curve" smooth="yes"/>
      <point x="616.779" y="627.839"/>
      <point x="612.332" y="623.392"/>
      <point x="612.332" y="618.071" type="curve" smooth="yes"/>
      <point x="612.332" y="251.771" type="line" smooth="yes"/>
      <point x="612.332" y="246.449"/>
      <point x="616.779" y="242.003"/>
      <point x="622.101" y="242.003" type="curve" smooth="yes"/>
      <point x="627.421" y="242.003"/>
      <point x="631.868" y="246.449"/>
      <point x="631.868" y="251.771" type="curve" smooth="yes"/>
      <point x="631.868" y="618.071" type="line" smooth="yes"/>
      <point x="631.868" y="623.392"/>
      <point x="627.421" y="627.839"/>
    </contour>
    <contour>
      <point x="362.638" y="479.376" type="curve" smooth="yes"/>
      <point x="357.316" y="479.376"/>
      <point x="352.869" y="474.929"/>
      <point x="352.869" y="469.608" type="curve" smooth="yes"/>
      <point x="352.869" y="419.579"/>
      <point x="390.811" y="377.949"/>
      <point x="438.95" y="377.949" type="curve" smooth="yes"/>
      <point x="487.078" y="377.949"/>
      <point x="525.03" y="419.588"/>
      <point x="525.03" y="469.608" type="curve" smooth="yes"/>
      <point x="525.03" y="474.929"/>
      <point x="520.583" y="479.376"/>
      <point x="515.263" y="479.376" type="curve" smooth="yes"/>
      <point x="509.941" y="479.376"/>
      <point x="505.494" y="474.929"/>
      <point x="505.494" y="469.608" type="curve" smooth="yes"/>
      <point x="505.494" y="429.177"/>
      <point x="475.116" y="397.485"/>
      <point x="438.95" y="397.485" type="curve" smooth="yes"/>
      <point x="402.798" y="397.485"/>
      <point x="372.405" y="429.186"/>
      <point x="372.405" y="469.608" type="curve" smooth="yes"/>
      <point x="372.405" y="474.929"/>
      <point x="367.958" y="479.376"/>
    </contour>
    <contour>
      <point x="362.638" y="618.667" type="curve" smooth="yes"/>
      <point x="357.316" y="618.667"/>
      <point x="352.869" y="614.22"/>
      <point x="352.869" y="608.898" type="curve" smooth="yes"/>
      <point x="352.869" y="469.608" type="line" smooth="yes"/>
      <point x="352.869" y="464.287"/>
      <point x="357.316" y="459.84"/>
      <point x="362.638" y="459.84" type="curve" smooth="yes"/>
      <point x="367.958" y="459.84"/>
      <point x="372.405" y="464.287"/>
      <point x="372.405" y="469.608" type="curve" smooth="yes"/>
      <point x="372.405" y="608.898" type="line" smooth="yes"/>
      <point x="372.405" y="614.22"/>
      <point x="367.958" y="618.667"/>
    </contour>
    <contour>
      <point x="515.263" y="618.667" type="curve" smooth="yes"/>
      <point x="509.941" y="618.667"/>
      <point x="505.494" y="614.22"/>
      <point x="505.494" y="608.898" type="curve" smooth="yes"/>
      <point x="505.494" y="469.608" type="line" smooth="yes"/>
      <point x="505.494" y="464.287"/>
      <point x="509.941" y="459.84"/>
      <point x="515.263" y="459.84" type="curve" smooth="yes"/>
      <point x="520.583" y="459.84"/>
      <point x="525.03" y="464.287"/>
      <point x="525.03" y="469.608" type="curve" smooth="yes"/>
      <point x="525.03" y="608.898" type="line" smooth="yes"/>
      <point x="525.03" y="614.22"/>
      <point x="520.583" y="618.667"/>
    </contour>
    <contour>
      <point x="284.188" y="619.486" type="curve" smooth="yes"/>
      <point x="284.188" y="614.165"/>
      <point x="288.636" y="609.718"/>
      <point x="293.956" y="609.718" type="curve" smooth="yes"/>
      <point x="706.044" y="609.718" type="line" smooth="yes"/>
      <point x="711.364" y="609.718"/>
      <point x="715.812" y="614.165"/>
      <point x="715.812" y="619.486" type="curve" smooth="yes"/>
      <point x="715.812" y="624.807"/>
      <point x="711.364" y="629.254"/>
      <point x="706.044" y="629.254" type="curve" smooth="yes"/>
      <point x="293.956" y="629.254" type="line" smooth="yes"/>
      <point x="288.636" y="629.254"/>
      <point x="284.188" y="624.807"/>
    </contour>
  </outline>
</glyph>
<glyph name="uni0924" format="2">
  <advance width="1000"/>
  <unicode hex="0924"/>
  <outline>
    <contour>
      <point x="591.575" y="627.839" type="curve" smooth="yes"/>
      <point x="586.254" y="627.839"/>
      <point x="581.807" y="623.392"/>
      <point x="581.807" y="618.071" type="curve" smooth="yes"/>
      <point x="581.807" y="251.771" type="line" smooth="yes"/>
      <point x="581.807" y="246.449"/>
      <point x="586.254" y="242.003"/>
      <point x="591.575" y="242.003" type="curve" smooth="yes"/>
      <point x="596.896" y="242.003"/>
      <point x="601.343" y="246.449"/>
      <point x="601.343" y="251.771" type="curve" smooth="yes"/>
      <point x="601.343" y="618.071" type="line" smooth="yes"/>
      <point x="601.343" y="623.392"/>
      <point x="596.896" y="627.839"/>
    </contour>
    <contour>
      <point x="600.533" y="461.551" type="curve" smooth="yes"/>
      <point x="602.654" y="466.431"/>
      <point x="600.35" y="472.282"/>
      <point x="595.47" y="474.403" type="curve" smooth="yes"/>
      <point x="544.312" y="496.646"/>
      <point x="486.214" y="496.646"/>
      <point x="435.056" y="474.403" type="curve" smooth="yes"/>
      <point x="430.176" y="472.282"/>
      <point x="427.87" y="466.431"/>
      <point x="429.992" y="461.551" type="curve" smooth="yes"/>
      <point x="432.113" y="456.672"/>
      <point x="437.965" y="454.366"/>
      <point x="442.845" y="456.487" type="curve" smooth="yes"/>
      <point x="489.035" y="476.57"/>
      <point x="541.49" y="476.57"/>
      <point x="587.681" y="456.487" type="curve" smooth="yes"/>
      <point x="592.56" y="454.366"/>
      <point x="598.411" y="456.672"/>
    </contour>
    <contour>
      <point x="447.666" y="469.855" type="curve" smooth="yes"/>
      <point x="445.265" y="474.603"/>
      <point x="439.288" y="476.563"/>
      <point x="434.541" y="474.162" type="curve" smooth="yes"/>
      <point x="398.903" y="456.134"/>
      <point x="380.424" y="417.591"/>
      <point x="383.695" y="373.255" type="curve" smooth="yes"/>
      <point x="386.964" y="328.961"/>
      <point x="411.016" y="283.741"/>
      <point x="447.748" y="251.315" type="curve" smooth="yes"/>
      <point x="451.737" y="247.794"/>
      <point x="458.014" y="248.186"/>
      <point x="461.535" y="252.174" type="curve" smooth="yes"/>
      <point x="465.057" y="256.163"/>
      <point x="464.666" y="262.44"/>
      <point x="460.677" y="265.962" type="curve" smooth="yes"/>
      <point x="427.409" y="295.329"/>
      <point x="406.007" y="336.368"/>
      <point x="403.178" y="374.693" type="curve" smooth="yes"/>
      <point x="400.354" y="412.979"/>
      <point x="415.912" y="442.845"/>
      <point x="443.359" y="456.729" type="curve" smooth="yes"/>
      <point x="448.107" y="459.131"/>
      <point x="450.068" y="465.107"/>
    </contour>
    <contour>
      <point x="307.082" y="618.071" type="curve" smooth="yes"/>
      <point x="307.082" y="612.75"/>
      <point x="311.529" y="608.303"/>
      <point x="316.85" y="608.303" type="curve" smooth="yes"/>
      <point x="683.15" y="608.303" type="line" smooth="yes"/>
      <point x="688.471" y="608.303"/>
      <point x="692.918" y="612.75"/>
      <point x="692.918" y="618.071" type="curve" smooth="yes"/>
      <point x="692.918" y="623.392"/>
      <point x="688.471" y="627.839"/>
      <point x="683.15" y="627.839" type="curve" smooth="yes"/>
      <point x="316.85" y="627.839" type="line" smooth="yes"/>
      <point x="311.529" y="627.839"/>
      <point x="307.082" y="623.392"/>
    </contour>
  </outline>
</glyph>
<glyph name="uni0925" format="2">
  <advance width="1000"/>
  <unicode hex="0925"/>
  <outline>
    <contour>
      <point x="637.362" y="627.839" type="curve" smooth="yes"/>
      <point x="632.042" y="627.839"/>
      <point x="627.595" y="623.392"/>
      <point x="627.595" y="618.071" type="curve" smooth="yes"/>
      <point x="627.595" y="251.771" type="line" smooth="yes"/>
      <point x="627.595" y="246.449"/>
      <point x="632.042" y="242.003"/>
      <point x="637.362" y="242.003" type="curve" smooth="yes"/>
      <point x="642.684" y="242.003"/>
      <point x="647.131" y="246.449"/>
      <point x="647.131" y="251.771" type="curve" smooth="yes"/>
      <point x="647.131" y="618.071" type="line" smooth="yes"/>
      <point x="647.131" y="623.392"/>
      <point x="642.684" y="627.839"/>
    </contour>
    <contour>
      <point x="394.759" y="571.907" type="curve" smooth="yes"/>
      <point x="394.759" y="552.015"/>
      <point x="378.635" y="535.888"/>
      <point x="358.739" y="535.888" type="curve" smooth="yes"/>
      <point x="338.848" y="535.888"/>
      <point x="322.72" y="552.013"/>
      <point x="322.72" y="571.907" type="curve" smooth="yes"/>
      <point x="322.72" y="591.801"/>
      <point x="338.846" y="607.927"/>
      <point x="358.739" y="607.927" type="curve" smooth="yes"/>
      <point x="378.633" y="607.927"/>
      <point x="394.759" y="591.803"/>
    </contour>
    <contour>
      <point x="414.295" y="571.907" type="curve" smooth="yes"/>
      <point x="414.295" y="602.589"/>
      <point x="389.423" y="627.463"/>
      <point x="358.739" y="627.463" type="curve" smooth="yes"/>
      <point x="328.06" y="627.463"/>
      <point x="303.184" y="602.591"/>
      <point x="303.184" y="571.907" type="curve" smooth="yes"/>
      <point x="303.184" y="541.227"/>
      <point x="328.058" y="516.353"/>
      <point x="358.739" y="516.353" type="curve" smooth="yes"/>
      <point x="389.421" y="516.353"/>
      <point x="414.295" y="541.225"/>
    </contour>
    <contour>
      <point x="513.126" y="618.071" type="curve" smooth="yes"/>
      <point x="513.126" y="612.75"/>
      <point x="517.573" y="608.303"/>
      <point x="522.894" y="608.303" type="curve" smooth="yes"/>
      <point x="706.044" y="608.303" type="line" smooth="yes"/>
      <point x="711.364" y="608.303"/>
      <point x="715.812" y="612.75"/>
      <point x="715.812" y="618.071" type="curve" smooth="yes"/>
      <point x="715.812" y="623.392"/>
      <point x="711.364" y="627.839"/>
      <point x="706.044" y="627.839" type="curve" smooth="yes"/>
      <point x="522.894" y="627.839" type="line" smooth="yes"/>
      <point x="517.573" y="627.839"/>
      <point x="513.126" y="623.392"/>
    </contour>
    <contour>
      <point x="353.052" y="619.951" type="curve" smooth="yes"/>
      <point x="352.027" y="614.73"/>
      <point x="355.535" y="609.51"/>
      <point x="360.757" y="608.485" type="curve" smooth="yes"/>
      <point x="391.485" y="602.456"/>
      <point x="416.386" y="579.975"/>
      <point x="425.511" y="550.019" type="curve" smooth="yes"/>
      <point x="434.637" y="520.063"/>
      <point x="426.5" y="487.517"/>
      <point x="404.352" y="465.379" type="curve" smooth="yes"/>
      <point x="382.202" y="443.242"/>
      <point x="349.652" y="435.123"/>
      <point x="319.701" y="444.264" type="curve" smooth="yes"/>
      <point x="314.612" y="445.816"/>
      <point x="309.061" y="442.86"/>
      <point x="307.507" y="437.771" type="curve" smooth="yes"/>
      <point x="305.954" y="432.683"/>
      <point x="308.909" y="427.131"/>
      <point x="313.999" y="425.578" type="curve" smooth="yes"/>
      <point x="350.854" y="414.331"/>
      <point x="390.906" y="424.322"/>
      <point x="418.162" y="451.562" type="curve" smooth="yes"/>
      <point x="445.416" y="478.803"/>
      <point x="455.428" y="518.852"/>
      <point x="444.199" y="555.712" type="curve" smooth="yes"/>
      <point x="432.971" y="592.572"/>
      <point x="402.33" y="620.237"/>
      <point x="364.518" y="627.656" type="curve" smooth="yes"/>
      <point x="359.297" y="628.681"/>
      <point x="354.076" y="625.173"/>
    </contour>
    <contour>
      <point x="314.318" y="444.354" type="curve" smooth="yes"/>
      <point x="309.18" y="442.977"/>
      <point x="306.037" y="437.528"/>
      <point x="307.415" y="432.39" type="curve" smooth="yes"/>
      <point x="325.997" y="363.133"/>
      <point x="379.552" y="308.705"/>
      <point x="448.498" y="289.005" type="curve" smooth="yes"/>
      <point x="517.444" y="269.306"/>
      <point x="591.672" y="287.226"/>
      <point x="644.036" y="336.212" type="curve" smooth="yes"/>
      <point x="647.921" y="339.848"/>
      <point x="648.131" y="346.133"/>
      <point x="644.496" y="350.019" type="curve" smooth="yes"/>
      <point x="640.861" y="353.904"/>
      <point x="634.575" y="354.113"/>
      <point x="630.689" y="350.479" type="curve" smooth="yes"/>
      <point x="583.337" y="306.181"/>
      <point x="516.214" y="289.975"/>
      <point x="453.865" y="307.79" type="curve" smooth="yes"/>
      <point x="391.518" y="325.604"/>
      <point x="343.088" y="374.823"/>
      <point x="326.284" y="437.452" type="curve" smooth="yes"/>
      <point x="324.905" y="442.591"/>
      <point x="319.458" y="445.733"/>
    </contour>
    <contour>
      <point x="637.362" y="333.577" type="curve" smooth="yes"/>
      <point x="642.684" y="333.577"/>
      <point x="647.131" y="338.024"/>
      <point x="647.131" y="343.346" type="curve" smooth="yes"/>
      <point x="647.131" y="434.921" type="line" smooth="yes"/>
      <point x="647.131" y="440.241"/>
      <point x="642.684" y="444.688"/>
      <point x="637.362" y="444.688" type="curve" smooth="yes"/>
      <point x="632.042" y="444.688"/>
      <point x="627.595" y="440.241"/>
      <point x="627.595" y="434.921" type="curve" smooth="yes"/>
      <point x="627.595" y="343.346" type="line" smooth="yes"/>
      <point x="627.595" y="338.024"/>
      <point x="632.042" y="333.577"/>
    </contour>
    <contour>
      <point x="314.318" y="444.354" type="curve" smooth="yes"/>
      <point x="309.18" y="442.977"/>
      <point x="306.037" y="437.528"/>
      <point x="307.415" y="432.39" type="curve" smooth="yes"/>
      <point x="325.997" y="363.133"/>
      <point x="379.552" y="308.705"/>
      <point x="448.498" y="289.005" type="curve" smooth="yes"/>
      <point x="517.444" y="269.306"/>
      <point x="591.672" y="287.226"/>
      <point x="644.036" y="336.212" type="curve" smooth="yes"/>
      <point x="647.921" y="339.848"/>
      <point x="648.131" y="346.133"/>
      <point x="644.496" y="350.019" type="curve" smooth="yes"/>
      <point x="640.861" y="353.904"/>
      <point x="634.575" y="354.113"/>
      <point x="630.689" y="350.479" type="curve" smooth="yes"/>
      <point x="583.337" y="306.181"/>
      <point x="516.214" y="289.975"/>
      <point x="453.865" y="307.79" type="curve" smooth="yes"/>
      <point x="391.518" y="325.604"/>
      <point x="343.088" y="374.823"/>
      <point x="326.284" y="437.452" type="curve" smooth="yes"/>
      <point x="324.905" y="442.591"/>
      <point x="319.458" y="445.733"/>
    </contour>
    <contour>
      <point x="637.362" y="333.577" type="curve" smooth="yes"/>
      <point x="642.684" y="333.577"/>
      <point x="647.131" y="338.024"/>
      <point x="647.131" y="343.346" type="curve" smooth="yes"/>
      <point x="647.131" y="434.921" type="line" smooth="yes"/>
      <point x="647.131" y="440.241"/>
      <point x="642.684" y="444.688"/>
      <point x="637.362" y="444.688" type="curve" smooth="yes"/>
      <point x="632.042" y="444.688"/>
      <point x="627.595" y="440.241"/>
      <point x="627.595" y="434.921" type="curve" smooth="yes"/>
      <point x="627.595" y="343.346" type="line" smooth="yes"/>
      <point x="627.595" y="338.024"/>
      <point x="632.042" y="333.577"/>
    </contour>
    <contour>
      <point x="637.362" y="333.577" type="curve" smooth="yes"/>
      <point x="642.684" y="333.577"/>
      <point x="647.131" y="338.024"/>
      <point x="647.131" y="343.346" type="curve" smooth="yes"/>
      <point x="647.131" y="434.921" type="line" smooth="yes"/>
      <point x="647.131" y="440.241"/>
      <point x="642.684" y="444.688"/>
      <point x="637.362" y="444.688" type="curve" smooth="yes"/>
      <point x="632.042" y="444.688"/>
      <point x="627.595" y="440.241"/>
      <point x="627.595" y="434.921" type="curve" smooth="yes"/>
      <point x="627.595" y="343.346" type="line" smooth="yes"/>
      <point x="627.595" y="338.024"/>
      <point x="632.042" y="333.577"/>
    </contour>
    <contour>
      <point x="353.052" y="619.951" type="curve" smooth="yes"/>
      <point x="352.027" y="614.73"/>
      <point x="355.535" y="609.51"/>
      <point x="360.757" y="608.485" type="curve" smooth="yes"/>
      <point x="391.485" y="602.456"/>
      <point x="416.386" y="579.975"/>
      <point x="425.511" y="550.019" type="curve" smooth="yes"/>
      <point x="434.637" y="520.063"/>
      <point x="426.5" y="487.517"/>
      <point x="404.352" y="465.379" type="curve" smooth="yes"/>
      <point x="382.202" y="443.242"/>
      <point x="349.652" y="435.123"/>
      <point x="319.701" y="444.264" type="curve" smooth="yes"/>
      <point x="314.331" y="445.902"/>
      <point x="308.524" y="442.513"/>
      <point x="307.312" y="437.03" type="curve" smooth="yes"/>
      <point x="306.972" y="435.49"/>
      <point x="307.304" y="432.806"/>
      <point x="307.415" y="432.39" type="curve" smooth="yes"/>
      <point x="325.997" y="363.133"/>
      <point x="379.552" y="308.705"/>
      <point x="448.498" y="289.005" type="curve" smooth="yes"/>
      <point x="517.444" y="269.306"/>
      <point x="591.672" y="287.226"/>
      <point x="644.036" y="336.212" type="curve" smooth="yes"/>
      <point x="646.037" y="338.085"/>
      <point x="647.131" y="340.979"/>
      <point x="647.131" y="343.346" type="curve" smooth="yes"/>
      <point x="647.131" y="434.921" type="line" smooth="yes"/>
      <point x="647.131" y="440.241"/>
      <point x="642.684" y="444.688"/>
      <point x="637.362" y="444.688" type="curve" smooth="yes"/>
      <point x="632.042" y="444.688"/>
      <point x="627.595" y="440.241"/>
      <point x="627.595" y="434.921" type="curve" smooth="yes"/>
      <point x="627.595" y="347.648" type="line"/>
      <point x="581.257" y="306.348"/>
      <point x="515.263" y="290.246"/>
      <point x="453.865" y="307.79" type="curve" smooth="yes"/>
      <point x="396.821" y="324.089"/>
      <point x="351.647" y="366.281"/>
      <point x="331.209" y="421.876" type="curve"/>
      <point x="361.939" y="418.051"/>
      <point x="394.745" y="428.158"/>
      <point x="418.162" y="451.562" type="curve" smooth="yes"/>
      <point x="445.416" y="478.803"/>
      <point x="455.428" y="518.852"/>
      <point x="444.199" y="555.712" type="curve" smooth="yes"/>
      <point x="432.971" y="592.572"/>
      <point x="402.33" y="620.237"/>
      <point x="364.518" y="627.656" type="curve" smooth="yes"/>
      <point x="359.297" y="628.681"/>
      <point x="354.076" y="625.173"/>
    </contour>
  </outline>
</glyph>
<glyph name="uni0926" format="2">
  <advance width="1000"/>
  <unicode hex="0926"/>
  <outline>
    <contour>
      <point x="661.626" y="199.118" type="curve" smooth="yes"/>
      <point x="661.626" y="204.439"/>
      <point x="657.18" y="208.887"/>
      <point x="651.858" y="208.887" type="curve" smooth="yes"/>
      <point x="609.067" y="208.887"/>
      <point x="539.526" y="291.116"/>
      <point x="539.526" y="336.481" type="curve" smooth="yes"/>
      <point x="539.526" y="341.802"/>
      <point x="535.079" y="346.249"/>
      <point x="529.759" y="346.249" type="curve" smooth="yes"/>
      <point x="524.438" y="346.249"/>
      <point x="519.99" y="341.802"/>
      <point x="519.99" y="336.481" type="curve" smooth="yes"/>
      <point x="519.99" y="280.693"/>
      <point x="593.497" y="189.351"/>
      <point x="651.858" y="189.351" type="curve" smooth="yes"/>
      <point x="657.18" y="189.351"/>
      <point x="661.626" y="193.798"/>
    </contour>
    <contour>
      <point x="347.375" y="421.795" type="curve" smooth="yes"/>
      <point x="342.054" y="421.795"/>
      <point x="337.606" y="417.348"/>
      <point x="337.606" y="412.027" type="curve" smooth="yes"/>
      <point x="337.606" y="346.345"/>
      <point x="377.172" y="287.132"/>
      <point x="437.854" y="261.994" type="curve" smooth="yes"/>
      <point x="498.537" y="236.86"/>
      <point x="568.385" y="250.754"/>
      <point x="614.828" y="297.197" type="curve" smooth="yes"/>
      <point x="618.591" y="300.96"/>
      <point x="618.591" y="307.249"/>
      <point x="614.828" y="311.011" type="curve" smooth="yes"/>
      <point x="611.066" y="314.773"/>
      <point x="604.776" y="314.773"/>
      <point x="601.015" y="311.011" type="curve" smooth="yes"/>
      <point x="560.159" y="270.155"/>
      <point x="498.713" y="257.933"/>
      <point x="445.33" y="280.044" type="curve" smooth="yes"/>
      <point x="391.949" y="302.156"/>
      <point x="357.143" y="354.247"/>
      <point x="357.143" y="412.027" type="curve" smooth="yes"/>
      <point x="357.143" y="417.348"/>
      <point x="352.695" y="421.795"/>
    </contour>
    <contour>
      <point x="347.375" y="402.259" type="curve" smooth="yes"/>
      <point x="352.695" y="402.259"/>
      <point x="357.143" y="406.706"/>
      <point x="357.143" y="412.027" type="curve" smooth="yes"/>
      <point x="357.143" y="494.033"/>
      <point x="433.65" y="562.516"/>
      <point x="530.525" y="562.516" type="curve" smooth="yes"/>
      <point x="561.05" y="562.516" type="line" smooth="yes"/>
      <point x="566.371" y="562.516"/>
      <point x="570.818" y="566.963"/>
      <point x="570.818" y="572.283" type="curve" smooth="yes"/>
      <point x="570.818" y="577.604"/>
      <point x="566.371" y="582.052"/>
      <point x="561.05" y="582.052" type="curve" smooth="yes"/>
      <point x="530.525" y="582.052" type="line" smooth="yes"/>
      <point x="425.098" y="582.052"/>
      <point x="337.606" y="507.035"/>
      <point x="337.606" y="412.027" type="curve" smooth="yes"/>
      <point x="337.606" y="406.706"/>
      <point x="342.054" y="402.259"/>
    </contour>
    <contour>
      <point x="601.015" y="297.197" type="curve" smooth="yes"/>
      <point x="604.776" y="293.435"/>
      <point x="611.066" y="293.435"/>
      <point x="614.828" y="297.197" type="curve" smooth="yes"/>
      <point x="632.608" y="314.978"/>
      <point x="636.23" y="342.483"/>
      <point x="623.659" y="364.259" type="curve" smooth="yes"/>
      <point x="611.086" y="386.035"/>
      <point x="585.455" y="396.651"/>
      <point x="561.166" y="390.144" type="curve" smooth="yes"/>
      <point x="536.88" y="383.635"/>
      <point x="519.99" y="361.625"/>
      <point x="519.99" y="336.481" type="curve" smooth="yes"/>
      <point x="519.99" y="331.16"/>
      <point x="524.438" y="326.713"/>
      <point x="529.759" y="326.713" type="curve" smooth="yes"/>
      <point x="535.079" y="326.713"/>
      <point x="539.526" y="331.16"/>
      <point x="539.526" y="336.481" type="curve" smooth="yes"/>
      <point x="539.526" y="352.784"/>
      <point x="550.477" y="367.054"/>
      <point x="566.224" y="371.273" type="curve" smooth="yes"/>
      <point x="581.97" y="375.493"/>
      <point x="598.588" y="368.61"/>
      <point x="606.74" y="354.49" type="curve" smooth="yes"/>
      <point x="614.891" y="340.373"/>
      <point x="612.543" y="322.54"/>
      <point x="601.015" y="311.011" type="curve" smooth="yes"/>
      <point x="597.252" y="307.249"/>
      <point x="597.252" y="300.96"/>
    </contour>
    <contour>
      <point x="561.05" y="673.626" type="curve" smooth="yes"/>
      <point x="555.729" y="673.626"/>
      <point x="551.282" y="669.179"/>
      <point x="551.282" y="663.858" type="curve" smooth="yes"/>
      <point x="551.282" y="572.283" type="line" smooth="yes"/>
      <point x="551.282" y="566.963"/>
      <point x="555.729" y="562.516"/>
      <point x="561.05" y="562.516" type="curve" smooth="yes"/>
      <point x="566.371" y="562.516"/>
      <point x="570.818" y="566.963"/>
      <point x="570.818" y="572.283" type="curve" smooth="yes"/>
      <point x="570.818" y="663.858" type="line" smooth="yes"/>
      <point x="570.818" y="669.179"/>
      <point x="566.371" y="673.626"/>
    </contour>
    <contour>
      <point x="284.188" y="663.858" type="curve" smooth="yes"/>
      <point x="284.188" y="658.538"/>
      <point x="288.636" y="654.091"/>
      <point x="293.956" y="654.091" type="curve" smooth="yes"/>
      <point x="706.044" y="654.091" type="line" smooth="yes"/>
      <point x="711.364" y="654.091"/>
      <point x="715.812" y="658.538"/>
      <point x="715.812" y="663.858" type="curve" smooth="yes"/>
      <point x="715.812" y="669.179"/>
      <point x="711.364" y="673.626"/>
      <point x="706.044" y="673.626" type="curve" smooth="yes"/>
      <point x="293.956" y="673.626" type="line" smooth="yes"/>
      <point x="288.636" y="673.626"/>
      <point x="284.188" y="669.179"/>
    </contour>
  </outline>
</glyph>
<glyph name="uni0927" format="2">
  <advance width="1000"/>
  <unicode hex="0927"/>
  <outline>
    <contour>
      <point x="417.77" y="620.915" type="curve" smooth="yes"/>
      <point x="416.221" y="626.005"/>
      <point x="410.671" y="628.965"/>
      <point x="405.581" y="627.416" type="curve" smooth="yes"/>
      <point x="365.423" y="615.193"/>
      <point x="341.446" y="574.112"/>
      <point x="350.551" y="533.137" type="curve" smooth="yes"/>
      <point x="359.657" y="492.161"/>
      <point x="398.777" y="465.101"/>
      <point x="440.332" y="471.038" type="curve" smooth="yes"/>
      <point x="445.599" y="471.791"/>
      <point x="449.372" y="476.822"/>
      <point x="448.62" y="482.09" type="curve" smooth="yes"/>
      <point x="447.867" y="487.357"/>
      <point x="442.836" y="491.131"/>
      <point x="437.568" y="490.378" type="curve" smooth="yes"/>
      <point x="406.119" y="485.885"/>
      <point x="376.514" y="506.362"/>
      <point x="369.621" y="537.375" type="curve" smooth="yes"/>
      <point x="362.73" y="568.386"/>
      <point x="380.876" y="599.476"/>
      <point x="411.269" y="608.726" type="curve" smooth="yes"/>
      <point x="416.359" y="610.275"/>
      <point x="419.319" y="615.825"/>
    </contour>
    <contour>
      <point x="447.488" y="485.452" type="curve" smooth="yes"/>
      <point x="444.904" y="490.104"/>
      <point x="438.857" y="491.831"/>
      <point x="434.206" y="489.247" type="curve" smooth="yes"/>
      <point x="392.865" y="466.278"/>
      <point x="376.945" y="414.824"/>
      <point x="398.095" y="372.521" type="curve" smooth="yes"/>
      <point x="419.246" y="330.221"/>
      <point x="469.962" y="312.08"/>
      <point x="513.143" y="331.375" type="curve" smooth="yes"/>
      <point x="518" y="333.546"/>
      <point x="520.246" y="339.42"/>
      <point x="518.076" y="344.278" type="curve" smooth="yes"/>
      <point x="515.905" y="349.136"/>
      <point x="510.03" y="351.382"/>
      <point x="505.173" y="349.211" type="curve" smooth="yes"/>
      <point x="471.543" y="334.185"/>
      <point x="432.043" y="348.311"/>
      <point x="415.568" y="381.258" type="curve" smooth="yes"/>
      <point x="399.097" y="414.204"/>
      <point x="411.493" y="454.279"/>
      <point x="443.694" y="472.17" type="curve" smooth="yes"/>
      <point x="448.345" y="474.754"/>
      <point x="450.072" y="480.801"/>
    </contour>
    <contour>
      <point x="499.814" y="337.442" type="curve" smooth="yes"/>
      <point x="501.367" y="332.354"/>
      <point x="506.919" y="329.397"/>
      <point x="512.008" y="330.95" type="curve" smooth="yes"/>
      <point x="563.46" y="346.649"/>
      <point x="606.333" y="382.57"/>
      <point x="630.8" y="430.478" type="curve" smooth="yes"/>
      <point x="633.22" y="435.217"/>
      <point x="631.281" y="441.2"/>
      <point x="626.543" y="443.62" type="curve" smooth="yes"/>
      <point x="621.805" y="446.04"/>
      <point x="615.821" y="444.102"/>
      <point x="613.401" y="439.363" type="curve" smooth="yes"/>
      <point x="591.343" y="396.173"/>
      <point x="552.692" y="363.789"/>
      <point x="506.307" y="349.636" type="curve" smooth="yes"/>
      <point x="501.218" y="348.083"/>
      <point x="498.262" y="342.531"/>
    </contour>
    <contour>
      <point x="377.019" y="588.868" type="curve" smooth="yes"/>
      <point x="377.019" y="566.616"/>
      <point x="395.062" y="548.576"/>
      <point x="417.312" y="548.576" type="curve" smooth="yes"/>
      <point x="439.564" y="548.576"/>
      <point x="457.606" y="566.616"/>
      <point x="457.606" y="588.868" type="curve" smooth="yes"/>
      <point x="457.606" y="611.12"/>
      <point x="439.564" y="629.161"/>
      <point x="417.312" y="629.161" type="curve" smooth="yes"/>
      <point x="395.061" y="629.161"/>
      <point x="377.019" y="611.119"/>
    </contour>
    <contour>
      <point x="396.555" y="588.868" type="curve" smooth="yes"/>
      <point x="396.555" y="600.333"/>
      <point x="405.848" y="609.625"/>
      <point x="417.312" y="609.625" type="curve" smooth="yes"/>
      <point x="428.777" y="609.625"/>
      <point x="438.07" y="600.332"/>
      <point x="438.07" y="588.868" type="curve" smooth="yes"/>
      <point x="438.07" y="577.403"/>
      <point x="428.777" y="568.112"/>
      <point x="417.312" y="568.112" type="curve" smooth="yes"/>
      <point x="405.847" y="568.112"/>
      <point x="396.555" y="577.404"/>
    </contour>
    <contour>
      <point x="622.101" y="627.839" type="curve" smooth="yes"/>
      <point x="616.779" y="627.839"/>
      <point x="612.332" y="623.392"/>
      <point x="612.332" y="618.071" type="curve" smooth="yes"/>
      <point x="612.332" y="251.771" type="line" smooth="yes"/>
      <point x="612.332" y="246.449"/>
      <point x="616.779" y="242.003"/>
      <point x="622.101" y="242.003" type="curve" smooth="yes"/>
      <point x="627.421" y="242.003"/>
      <point x="631.868" y="246.449"/>
      <point x="631.868" y="251.771" type="curve" smooth="yes"/>
      <point x="631.868" y="618.071" type="line" smooth="yes"/>
      <point x="631.868" y="623.392"/>
      <point x="627.421" y="627.839"/>
    </contour>
    <contour>
      <point x="490.232" y="618.071" type="curve" smooth="yes"/>
      <point x="490.232" y="612.75"/>
      <point x="494.68" y="608.303"/>
      <point x="500" y="608.303" type="curve" smooth="yes"/>
      <point x="706.044" y="608.303" type="line" smooth="yes"/>
      <point x="711.364" y="608.303"/>
      <point x="715.812" y="612.75"/>
      <point x="715.812" y="618.071" type="curve" smooth="yes"/>
      <point x="715.812" y="623.392"/>
      <point x="711.364" y="627.839"/>
      <point x="706.044" y="627.839" type="curve" smooth="yes"/>
      <point x="500" y="627.839" type="line" smooth="yes"/>
      <point x="494.68" y="627.839"/>
      <point x="490.232" y="623.392"/>
    </contour>
  </outline>
</glyph>
<glyph name="uni0928" format="2">
  <advance width="1000"/>
  <unicode hex="0928"/>
  <outline>
    <contour>
      <point x="647.131" y="434.927" type="curve" smooth="yes"/>
      <point x="647.131" y="440.247"/>
      <point x="642.678" y="444.691"/>
      <point x="637.357" y="444.688" type="curve" smooth="yes"/>
      <point x="408.419" y="444.555" type="line" smooth="yes"/>
      <point x="403.099" y="444.552"/>
      <point x="398.653" y="440.103"/>
      <point x="398.657" y="434.781" type="curve" smooth="yes"/>
      <point x="398.66" y="429.461"/>
      <point x="403.109" y="425.016"/>
      <point x="408.431" y="425.02" type="curve" smooth="yes"/>
      <point x="637.368" y="425.152" type="line" smooth="yes"/>
      <point x="642.689" y="425.155"/>
      <point x="647.131" y="429.605"/>
    </contour>
    <contour>
      <point x="349.816" y="385.946" type="curve" smooth="yes"/>
      <point x="349.816" y="353.691"/>
      <point x="376.11" y="327.646"/>
      <point x="408.425" y="327.646" type="curve" smooth="yes"/>
      <point x="440.742" y="327.646"/>
      <point x="467.033" y="353.696"/>
      <point x="467.033" y="385.946" type="curve" smooth="yes"/>
      <point x="467.033" y="418.201"/>
      <point x="440.74" y="444.249"/>
      <point x="408.425" y="444.249" type="curve" smooth="yes"/>
      <point x="376.106" y="444.249"/>
      <point x="349.816" y="418.196"/>
    </contour>
    <contour>
      <point x="369.353" y="385.946" type="curve" smooth="yes"/>
      <point x="369.353" y="407.305"/>
      <point x="386.795" y="424.713"/>
      <point x="408.425" y="424.713" type="curve" smooth="yes"/>
      <point x="430.058" y="424.713"/>
      <point x="447.497" y="407.3"/>
      <point x="447.497" y="385.946" type="curve" smooth="yes"/>
      <point x="447.497" y="364.588"/>
      <point x="430.056" y="347.182"/>
      <point x="408.425" y="347.182" type="curve" smooth="yes"/>
      <point x="386.791" y="347.182"/>
      <point x="369.353" y="364.594"/>
    </contour>
    <contour>
      <point x="637.362" y="582.052" type="curve" smooth="yes"/>
      <point x="632.042" y="582.052"/>
      <point x="627.595" y="577.604"/>
      <point x="627.595" y="572.283" type="curve" smooth="yes"/>
      <point x="627.595" y="219.268" type="line" smooth="yes"/>
      <point x="627.595" y="213.946"/>
      <point x="632.042" y="209.499"/>
      <point x="637.362" y="209.499" type="curve" smooth="yes"/>
      <point x="642.684" y="209.499"/>
      <point x="647.131" y="213.946"/>
      <point x="647.131" y="219.268" type="curve" smooth="yes"/>
      <point x="647.131" y="572.283" type="line" smooth="yes"/>
      <point x="647.131" y="577.604"/>
      <point x="642.684" y="582.052"/>
    </contour>
    <contour>
      <point x="322.345" y="572.283" type="curve" smooth="yes"/>
      <point x="322.345" y="566.963"/>
      <point x="326.792" y="562.516"/>
      <point x="332.112" y="562.516" type="curve" smooth="yes"/>
      <point x="701.465" y="562.516" type="line" smooth="yes"/>
      <point x="706.786" y="562.516"/>
      <point x="711.233" y="566.963"/>
      <point x="711.233" y="572.283" type="curve" smooth="yes"/>
      <point x="711.233" y="577.604"/>
      <point x="706.786" y="582.052"/>
      <point x="701.465" y="582.052" type="curve" smooth="yes"/>
      <point x="332.112" y="582.052" type="line" smooth="yes"/>
      <point x="326.792" y="582.052"/>
      <point x="322.345" y="577.604"/>
    </contour>
  </outline>
</glyph>
<glyph name="uni092A" format="2">
  <advance width="1000"/>
  <unicode hex="092A"/>
  <outline>
    <contour>
      <point x="568.682" y="582.052" type="curve" smooth="yes"/>
      <point x="563.36" y="582.052"/>
      <point x="558.913" y="577.604"/>
      <point x="558.913" y="572.283" type="curve" smooth="yes"/>
      <point x="558.913" y="205.982" type="line" smooth="yes"/>
      <point x="558.913" y="200.662"/>
      <point x="563.36" y="196.215"/>
      <point x="568.682" y="196.215" type="curve" smooth="yes"/>
      <point x="574.002" y="196.215"/>
      <point x="578.449" y="200.662"/>
      <point x="578.449" y="205.982" type="curve" smooth="yes"/>
      <point x="578.449" y="572.283" type="line" smooth="yes"/>
      <point x="578.449" y="577.604"/>
      <point x="574.002" y="582.052"/>
    </contour>
    <contour>
      <point x="569.716" y="582.052" type="curve" smooth="yes"/>
      <point x="564.396" y="582.07"/>
      <point x="559.933" y="577.639"/>
      <point x="559.914" y="572.317" type="curve" smooth="yes"/>
      <point x="559.382" y="419.693" type="line" smooth="yes"/>
      <point x="559.363" y="414.373"/>
      <point x="563.795" y="409.91"/>
      <point x="569.115" y="409.892" type="curve" smooth="yes"/>
      <point x="574.436" y="409.873"/>
      <point x="578.898" y="414.305"/>
      <point x="578.917" y="419.625" type="curve" smooth="yes"/>
      <point x="579.45" y="572.25" type="line" smooth="yes"/>
      <point x="579.469" y="577.57"/>
      <point x="575.037" y="582.033"/>
    </contour>
    <contour>
      <point x="417.092" y="582.584" type="curve" smooth="yes"/>
      <point x="411.771" y="582.603"/>
      <point x="407.309" y="578.171"/>
      <point x="407.29" y="572.851" type="curve" smooth="yes"/>
      <point x="406.757" y="420.226" type="line" smooth="yes"/>
      <point x="406.738" y="414.904"/>
      <point x="411.17" y="410.441"/>
      <point x="416.491" y="410.423" type="curve" smooth="yes"/>
      <point x="421.812" y="410.404"/>
      <point x="426.274" y="414.836"/>
      <point x="426.293" y="420.157" type="curve" smooth="yes"/>
      <point x="426.826" y="572.782" type="line" smooth="yes"/>
      <point x="426.845" y="578.104"/>
      <point x="422.413" y="582.565"/>
    </contour>
    <contour>
      <point x="569.184" y="429.428" type="curve" smooth="yes"/>
      <point x="563.862" y="429.446"/>
      <point x="559.4" y="425.015"/>
      <point x="559.382" y="419.693" type="curve" smooth="yes"/>
      <point x="559.253" y="382.939"/>
      <point x="529.355" y="353.252"/>
      <point x="492.605" y="353.382" type="curve" smooth="yes"/>
      <point x="455.853" y="353.51"/>
      <point x="426.165" y="383.408"/>
      <point x="426.293" y="420.157" type="curve" smooth="yes"/>
      <point x="426.312" y="425.478"/>
      <point x="421.88" y="429.94"/>
      <point x="416.56" y="429.959" type="curve" smooth="yes"/>
      <point x="411.238" y="429.978"/>
      <point x="406.775" y="425.546"/>
      <point x="406.757" y="420.226" type="curve" smooth="yes"/>
      <point x="406.591" y="372.685"/>
      <point x="444.998" y="334.012"/>
      <point x="492.537" y="333.846" type="curve" smooth="yes"/>
      <point x="540.078" y="333.679"/>
      <point x="578.751" y="372.085"/>
      <point x="578.917" y="419.625" type="curve" smooth="yes"/>
      <point x="578.936" y="424.946"/>
      <point x="574.504" y="429.409"/>
    </contour>
    <contour>
      <point x="579.45" y="572.25" type="curve" smooth="yes"/>
      <point x="579.469" y="577.57"/>
      <point x="575.037" y="582.033"/>
      <point x="569.716" y="582.052" type="curve" smooth="yes"/>
      <point x="417.092" y="582.584" type="line" smooth="yes"/>
      <point x="411.771" y="582.603"/>
      <point x="407.309" y="578.171"/>
      <point x="407.29" y="572.851" type="curve" smooth="yes"/>
      <point x="407.271" y="567.53"/>
      <point x="411.703" y="563.067"/>
      <point x="417.023" y="563.049" type="curve" smooth="yes"/>
      <point x="569.648" y="562.516" type="line" smooth="yes"/>
      <point x="574.969" y="562.497"/>
      <point x="579.432" y="566.929"/>
    </contour>
    <contour>
      <point x="323.474" y="572.283" type="curve" smooth="yes"/>
      <point x="323.474" y="566.962"/>
      <point x="327.921" y="562.515"/>
      <point x="333.241" y="562.515" type="curve" smooth="yes"/>
      <point x="653.754" y="562.516" type="line" smooth="yes"/>
      <point x="659.074" y="562.516"/>
      <point x="663.521" y="566.963"/>
      <point x="663.521" y="572.283" type="curve" smooth="yes"/>
      <point x="663.521" y="577.604"/>
      <point x="659.074" y="582.052"/>
      <point x="653.754" y="582.052" type="curve" smooth="yes"/>
      <point x="333.241" y="582.051" type="line" smooth="yes"/>
      <point x="327.921" y="582.051"/>
      <point x="323.474" y="577.604"/>
    </contour>
  </outline>
</glyph>
